<svg width="41" height="41" viewBox="0 0 41 41" fill="none" xmlns="http://www.w3.org/2000/svg">
<rect x="0.666626" y="0.5" width="40" height="40" rx="20" fill="#99A4BD"/>
<path d="M31.955 19.7851L29.94 17.4776L30.2217 14.4226C30.2758 13.881 29.9075 13.3826 29.3875 13.2635L26.3975 12.5918L24.8375 9.94847C24.5558 9.48263 23.9817 9.28763 23.4725 9.5043L20.6667 10.7068L17.8608 9.5043C17.3625 9.28763 16.7775 9.48263 16.5067 9.94847L14.9358 12.581L11.9567 13.2526C11.4258 13.3718 11.0575 13.8593 11.1117 14.401L11.3933 17.4668L9.36749 19.7851C9.00999 20.1968 9.00999 20.8035 9.36749 21.2151L11.3933 23.5226L11.1117 26.5885C11.0575 27.1301 11.4258 27.6285 11.9458 27.7476L14.9358 28.4301L16.4958 31.0626C16.7775 31.5285 17.3625 31.7235 17.8608 31.5068L20.6667 30.2826L23.4725 31.4851C23.9708 31.7018 24.5558 31.5068 24.8267 31.041L26.3867 28.4085L29.3767 27.726C29.9075 27.6068 30.265 27.1085 30.2108 26.5668L29.9292 23.5118L31.9442 21.2043C32.1208 21.0108 32.2196 20.7588 32.2216 20.4968C32.2236 20.2348 32.1286 19.9813 31.955 19.7851ZM18.7492 23.566L16.4525 21.2693C16.3522 21.169 16.2726 21.0499 16.2184 20.9189C16.1641 20.7878 16.1361 20.6474 16.1361 20.5055C16.1361 20.3637 16.1641 20.2233 16.2184 20.0922C16.2726 19.9612 16.3522 19.8421 16.4525 19.7418C16.5528 19.6415 16.6719 19.5619 16.8029 19.5077C16.9339 19.4534 17.0744 19.4254 17.2162 19.4254C17.3581 19.4254 17.4985 19.4534 17.6296 19.5077C17.7606 19.5619 17.8797 19.6415 17.98 19.7418L19.5075 21.2693L23.3425 17.4343C23.4428 17.334 23.5619 17.2544 23.6929 17.2002C23.8239 17.1459 23.9644 17.1179 24.1062 17.1179C24.2481 17.1179 24.3885 17.1459 24.5196 17.2002C24.6506 17.2544 24.7697 17.334 24.87 17.4343C24.9703 17.5346 25.0498 17.6537 25.1041 17.7847C25.1584 17.9158 25.1863 18.0562 25.1863 18.198C25.1863 18.3399 25.1584 18.4803 25.1041 18.6114C25.0498 18.7424 24.9703 18.8615 24.87 18.9618L20.2767 23.5551C19.865 23.9885 19.1717 23.9885 18.7492 23.566Z" fill="#001137"/>
</svg>
