<svg width="84" height="84" viewBox="0 0 84 84" fill="none" xmlns="http://www.w3.org/2000/svg">
<rect width="84" height="84" rx="42" fill="url(#paint0_linear)"/>
<path fill-rule="evenodd" clip-rule="evenodd" d="M50.3305 27.3558C50.2786 27.2501 50.2245 27.1457 50.1684 27.0426C49.4293 25.6891 48.3422 24.602 46.9887 23.8629C45.6395 23.1281 44.0625 22.75 42.3438 22.75H41.6562C39.9375 22.75 38.3605 23.1281 37.0113 23.8629C35.6578 24.602 34.5707 25.6891 33.8316 27.0426C33.0969 28.3918 32.7188 29.9688 32.7188 31.6875C32.7188 31.8766 32.8734 32.0312 33.0625 32.0312H45.655L50.3305 27.3558ZM43.2488 34.4375H29.9688C28.4734 34.4375 27.2617 33.2258 27.2617 31.7305C27.2617 31.5414 27.107 31.3867 26.918 31.3867H24.3398C24.1508 31.3867 23.9961 31.5414 23.9961 31.7305C23.9961 35.0305 26.6688 37.7031 29.9688 37.7031V42H23.6094C23.4203 42 23.2656 42.1547 23.2656 42.3438V44.75C23.2656 44.9391 23.4203 45.0938 23.6094 45.0938H29.9688V47.7175L43.2488 34.4375ZM32.4574 56.5426C33.4045 57.7753 34.5852 58.8195 35.9328 59.6086C37.1746 60.3348 38.5539 60.8461 40.0277 61.091C40.2168 61.091 40.3715 60.9363 40.3715 60.7473V48.6285L32.4574 56.5426ZM43.6371 45.3629V60.743C43.6371 60.932 43.7918 61.0867 43.9809 61.0867C45.4547 60.8418 46.834 60.3305 48.0758 59.6043C49.859 58.5602 51.35 57.0691 52.3941 55.2859C52.7852 54.6199 53.1117 53.9152 53.3695 53.1805C54.8949 54.0785 55.9219 55.7414 55.9219 57.6406C55.9219 57.8297 56.0766 57.9844 56.2656 57.9844H58.6719C58.8609 57.9844 59.0156 57.8297 59.0156 57.6406C59.0156 54.2332 56.9488 51.307 54.0012 50.048C54.0184 49.773 54.0312 49.498 54.0312 49.2188V45.0938H60.3906C60.5797 45.0938 60.7344 44.9391 60.7344 44.75V42.3438C60.7344 42.1547 60.5797 42 60.3906 42H54.0312V37.7031C57.3312 37.7031 60.0039 35.0305 60.0039 31.7305C60.0039 31.5414 59.8492 31.3867 59.6602 31.3867H57.6133L43.6371 45.3629Z" fill="white" fill-opacity="0.7"/>
<line x1="21.5858" y1="61.5858" x2="61.5858" y2="21.5858" stroke="white" stroke-width="4"/>
<defs>
<linearGradient id="paint0_linear" x1="18.1667" y1="6" x2="42" y2="84" gradientUnits="userSpaceOnUse">
<stop stop-color="#A16207"/>
<stop offset="1" stop-color="#713F12"/>
</linearGradient>
</defs>
</svg>
