<svg width="60" height="60" viewBox="0 0 60 60" fill="none" xmlns="http://www.w3.org/2000/svg">
<rect width="60" height="60" rx="30" fill="#86EFAC"/>
<mask id="path-2-inside-1" fill="white">
<path d="M21.6667 13.3333C24.6334 13.3333 26.1167 16.9333 24.0334 19.0333C21.9334 21.1166 18.3334 19.6333 18.3334 16.6666C18.3334 15.7825 18.6846 14.9347 19.3097 14.3096C19.9348 13.6844 20.7827 13.3333 21.6667 13.3333ZM19.1667 21.6666H24.1667C25.0508 21.6666 25.8986 22.0178 26.5237 22.6429C27.1489 23.268 27.5 24.1159 27.5 24.9999V34.1666H25V46.6666H18.3334V34.1666H15.8334V24.9999C15.8334 24.1159 16.1846 23.268 16.8097 22.6429C17.4348 22.0178 18.2827 21.6666 19.1667 21.6666ZM45 23.3333H35V26.6666H45V23.3333ZM45 28.3333H40V31.6666H45V28.3333ZM45 13.3333H35V16.6666H45V13.3333ZM45 18.3333H40V21.6666H45V18.3333ZM45 33.3333H35V36.6666H45V33.3333ZM45 43.3333H35V46.6666H45V43.3333ZM45 38.3333H40V41.6666H45"/>
</mask>
<path d="M24.0334 19.0333L24.7377 19.7432L24.7433 19.7375L24.0334 19.0333ZM24.1667 21.6666V20.6666V21.6666ZM27.5 34.1666V35.1666H28.5V34.1666H27.5ZM25 34.1666V33.1666H24V34.1666H25ZM25 46.6666V47.6666H26V46.6666H25ZM18.3334 46.6666H17.3334V47.6666H18.3334V46.6666ZM18.3334 34.1666H19.3334V33.1666H18.3334V34.1666ZM15.8334 34.1666H14.8334V35.1666H15.8334V34.1666ZM45 23.3333H46V22.3333H45V23.3333ZM35 23.3333V22.3333H34V23.3333H35ZM35 26.6666H34V27.6666H35V26.6666ZM45 26.6666V27.6666H46V26.6666H45ZM45 28.3333H46V27.3333H45V28.3333ZM40 28.3333V27.3333H39V28.3333H40ZM40 31.6666H39V32.6666H40V31.6666ZM45 31.6666V32.6666H46V31.6666H45ZM45 13.3333H46V12.3333H45V13.3333ZM35 13.3333V12.3333H34V13.3333H35ZM35 16.6666H34V17.6666H35V16.6666ZM45 16.6666V17.6666H46V16.6666H45ZM45 18.3333H46V17.3333H45V18.3333ZM40 18.3333V17.3333H39V18.3333H40ZM40 21.6666H39V22.6666H40V21.6666ZM45 21.6666V22.6666H46V21.6666H45ZM45 33.3333H46V32.3333H45V33.3333ZM35 33.3333V32.3333H34V33.3333H35ZM35 36.6666H34V37.6666H35V36.6666ZM45 36.6666V37.6666H46V36.6666H45ZM45 43.3333H46V42.3333H45V43.3333ZM35 43.3333V42.3333H34V43.3333H35ZM35 46.6666H34V47.6666H35V46.6666ZM45 46.6666V47.6666H46V46.6666H45ZM40 38.3333V37.3333H39V38.3333H40ZM40 41.6666H39V42.6666H40V41.6666ZM21.6667 14.3333C23.7368 14.3333 24.786 16.8547 23.3235 18.329L24.7433 19.7375C27.4474 17.0118 25.53 12.3333 21.6667 12.3333V14.3333ZM23.3291 18.3233C21.8548 19.7859 19.3334 18.7367 19.3334 16.6666H17.3334C17.3334 20.5298 22.012 22.4472 24.7377 19.7432L23.3291 18.3233ZM19.3334 16.6666C19.3334 16.0477 19.5792 15.4543 20.0168 15.0167L18.6026 13.6025C17.7899 14.4151 17.3334 15.5173 17.3334 16.6666H19.3334ZM20.0168 15.0167C20.4544 14.5791 21.0479 14.3333 21.6667 14.3333V12.3333C20.5174 12.3333 19.4152 12.7898 18.6026 13.6025L20.0168 15.0167ZM19.1667 22.6666H24.1667V20.6666H19.1667V22.6666ZM24.1667 22.6666C24.7855 22.6666 25.379 22.9124 25.8166 23.35L27.2308 21.9358C26.4182 21.1231 25.316 20.6666 24.1667 20.6666V22.6666ZM25.8166 23.35C26.2542 23.7876 26.5 24.3811 26.5 24.9999H28.5C28.5 23.8506 28.0435 22.7484 27.2308 21.9358L25.8166 23.35ZM26.5 24.9999V34.1666H28.5V24.9999H26.5ZM27.5 33.1666H25V35.1666H27.5V33.1666ZM24 34.1666V46.6666H26V34.1666H24ZM25 45.6666H18.3334V47.6666H25V45.6666ZM19.3334 46.6666V34.1666H17.3334V46.6666H19.3334ZM18.3334 33.1666H15.8334V35.1666H18.3334V33.1666ZM16.8334 34.1666V24.9999H14.8334V34.1666H16.8334ZM16.8334 24.9999C16.8334 24.3811 17.0792 23.7876 17.5168 23.35L16.1026 21.9358C15.2899 22.7484 14.8334 23.8506 14.8334 24.9999H16.8334ZM17.5168 23.35C17.9544 22.9124 18.5479 22.6666 19.1667 22.6666V20.6666C18.0174 20.6666 16.9152 21.1231 16.1026 21.9358L17.5168 23.35ZM45 22.3333H35V24.3333H45V22.3333ZM34 23.3333V26.6666H36V23.3333H34ZM35 27.6666H45V25.6666H35V27.6666ZM46 26.6666V23.3333H44V26.6666H46ZM45 27.3333H40V29.3333H45V27.3333ZM39 28.3333V31.6666H41V28.3333H39ZM40 32.6666H45V30.6666H40V32.6666ZM46 31.6666V28.3333H44V31.6666H46ZM45 12.3333H35V14.3333H45V12.3333ZM34 13.3333V16.6666H36V13.3333H34ZM35 17.6666H45V15.6666H35V17.6666ZM46 16.6666V13.3333H44V16.6666H46ZM45 17.3333H40V19.3333H45V17.3333ZM39 18.3333V21.6666H41V18.3333H39ZM40 22.6666H45V20.6666H40V22.6666ZM46 21.6666V18.3333H44V21.6666H46ZM45 32.3333H35V34.3333H45V32.3333ZM34 33.3333V36.6666H36V33.3333H34ZM35 37.6666H45V35.6666H35V37.6666ZM46 36.6666V33.3333H44V36.6666H46ZM45 42.3333H35V44.3333H45V42.3333ZM34 43.3333V46.6666H36V43.3333H34ZM35 47.6666H45V45.6666H35V47.6666ZM46 46.6666V43.3333H44V46.6666H46ZM45 37.3333H40V39.3333H45V37.3333ZM39 38.3333V41.6666H41V38.3333H39ZM40 42.6666H45V40.6666H40V42.6666Z" fill="#166534" mask="url(#path-2-inside-1)"/>
</svg>
