<svg width="42" height="41" viewBox="0 0 42 41" fill="none" xmlns="http://www.w3.org/2000/svg">
<path d="M21 0.375C9.88633 0.375 0.875 9.38633 0.875 20.5C0.875 31.6137 9.88633 40.625 21 40.625C32.1137 40.625 41.125 31.6137 41.125 20.5C41.125 9.38633 32.1137 0.375 21 0.375ZM27.4732 20.81L17.6623 27.948C17.6085 27.9867 17.5451 28.0098 17.4791 28.0147C17.413 28.0197 17.3469 28.0064 17.2879 27.9762C17.229 27.946 17.1795 27.9002 17.1449 27.8437C17.1103 27.7872 17.0919 27.7223 17.0918 27.6561V13.3889C17.0916 13.3225 17.1097 13.2574 17.1443 13.2007C17.1788 13.144 17.2284 13.098 17.2874 13.0678C17.3465 13.0375 17.4128 13.0243 17.479 13.0294C17.5451 13.0345 17.6086 13.0579 17.6623 13.0969L27.4732 20.2305C27.5196 20.2632 27.5574 20.3067 27.5835 20.3571C27.6096 20.4075 27.6232 20.4634 27.6232 20.5202C27.6232 20.577 27.6096 20.6329 27.5835 20.6833C27.5574 20.7338 27.5196 20.7772 27.4732 20.81Z" fill="white"/>
</svg>
