<svg width="60" height="60" viewBox="0 0 60 60" fill="none" xmlns="http://www.w3.org/2000/svg">
<rect width="60" height="60" rx="30" fill="#86EFAC"/>
<path d="M30 11.6667C29.1159 11.6667 28.2681 12.0179 27.6429 12.6431C27.0178 13.2682 26.6666 14.116 26.6666 15.0001C26.6666 16.8501 28.15 18.3334 30 18.3334C31.85 18.3334 33.3333 16.8501 33.3333 15.0001C33.3333 14.116 32.9821 13.2682 32.357 12.6431C31.7319 12.0179 30.884 11.6667 30 11.6667ZM26.6666 20.0001C26.2166 20.0001 25.8333 20.1834 25.5166 20.4667H25.5L16.6666 29.3167L19.0333 31.6667L25 25.6834V46.6667H28.3333V35.0001H31.6666V46.6667H35V25.6834L40.9666 31.6667L43.3333 29.3167L34.5 20.4667C34.1666 20.1834 33.7833 20.0001 33.3333 20.0001" fill="#15803D"/>
</svg>
