<svg width="40" height="41" viewBox="0 0 40 41" fill="none" xmlns="http://www.w3.org/2000/svg">
<rect y="0.499512" width="40" height="40" rx="10" fill="url(#paint0_linear)"/>
<path d="M30.0456 20.1709L30.0434 20.1684L28.1834 18.0384L28.0424 17.877L28.0621 17.6637L28.3221 14.8437L28.3225 14.8398C28.347 14.5949 28.1772 14.3621 27.9392 14.3071C27.9389 14.3071 27.9386 14.307 27.9383 14.3069L25.1804 13.6874L24.9694 13.64L24.8594 13.4537L23.421 11.0163C23.2867 10.7963 23.0215 10.7096 22.7862 10.8095C22.7861 10.8095 22.7859 10.8096 22.7858 10.8096L20.197 11.9191L20 12.0035L19.8031 11.9191L17.213 10.8091L17.2106 10.8081C16.9844 10.7097 16.7154 10.7991 16.5923 11.0109L16.5894 11.0158L16.5894 11.0158L15.1394 13.4458L15.0294 13.6301L14.82 13.6773L12.07 14.2973L12.0695 14.2974C11.8148 14.3546 11.6538 14.5828 11.6775 14.8198L11.6779 14.8238L11.6779 14.8238L11.9379 17.6538L11.9575 17.8672L11.8165 18.0286L9.94753 20.1674C9.94739 20.1676 9.94726 20.1677 9.94712 20.1679C9.78107 20.3595 9.78097 20.6391 9.94683 20.8309C9.94706 20.8312 9.9473 20.8314 9.94753 20.8317L11.8158 22.9597L11.9576 23.1212L11.9379 23.3353L11.6779 26.1653L11.6775 26.1693C11.653 26.4143 11.823 26.6473 12.0613 26.7021L30.0456 20.1709ZM30.0456 20.1709C30.1241 20.2596 30.167 20.3742 30.1661 20.4927C30.1652 20.6111 30.1205 20.725 30.0407 20.8125L30.0406 20.8125L30.0334 20.8207L28.1734 22.9507L28.0324 23.1121L28.0521 23.3255L28.3121 26.1455L28.3121 26.1455L28.3125 26.1493C28.3375 26.3994 28.1723 26.6274 27.9305 26.6817L27.9287 26.6821L25.1687 27.3121L24.9594 27.3599L24.8499 27.5447L23.4099 29.9747L23.4098 29.9746L23.4078 29.9782C23.2846 30.19 23.0156 30.2794 22.7894 30.181L22.787 30.18L20.197 29.07L19.9982 28.9848L19.8001 29.0713L17.2106 30.201L30.0456 20.1709ZM14.8213 27.3321L12.0617 26.7022L17.2101 30.2013C16.9871 30.2979 16.7134 30.2132 16.5789 29.9925C16.5785 29.9919 16.5782 29.9914 16.5779 29.9909L15.1402 27.5647L15.0307 27.3799L14.8213 27.3321ZM15.7565 21.5631L17.8765 23.6831C18.4582 24.2649 19.4182 24.2732 19.9976 23.6691L24.2336 19.4331C24.3726 19.2941 24.4828 19.1291 24.5581 18.9474C24.6333 18.7658 24.672 18.5712 24.672 18.3746C24.672 18.178 24.6333 17.9833 24.5581 17.8017C24.4828 17.62 24.3726 17.455 24.2336 17.316C24.0946 17.177 23.9295 17.0667 23.7479 16.9915C23.5663 16.9163 23.3716 16.8775 23.175 16.8775C22.9784 16.8775 22.7838 16.9163 22.6021 16.9915C22.4205 17.0667 22.2555 17.177 22.1165 17.316L18.93 20.5025L17.8736 19.446C17.7346 19.307 17.5695 19.1967 17.3879 19.1215C17.2063 19.0463 17.0116 19.0075 16.815 19.0075C16.6184 19.0075 16.4238 19.0463 16.2421 19.1215C16.0605 19.1967 15.8955 19.307 15.7565 19.446C15.6174 19.585 15.5072 19.75 15.4319 19.9317C15.3567 20.1133 15.318 20.308 15.318 20.5046C15.318 20.7012 15.3567 20.8958 15.4319 21.0774C15.5072 21.2591 15.6174 21.4241 15.7565 21.5631Z" fill="white" stroke="white"/>
<defs>
<linearGradient id="paint0_linear" x1="0" y1="0.499512" x2="40" y2="40.4995" gradientUnits="userSpaceOnUse">
<stop stop-color="#56A5D4"/>
<stop offset="1" stop-color="#0E7FC1"/>
</linearGradient>
</defs>
</svg>
