<svg width="40" height="40" viewBox="0 0 40 40" fill="none" xmlns="http://www.w3.org/2000/svg">
<path d="M33.5775 5.74243C31.7666 3.91476 29.61 2.46577 27.2335 1.4799C24.857 0.494034 22.3081 -0.0089968 19.7352 0.000121785C8.95416 0.000121785 0.167875 8.78393 0.158 19.5674C0.158 23.0212 1.06156 26.3812 2.76747 29.356L0 39.5001L10.3786 36.7796C13.2498 38.3421 16.4664 39.1611 19.7352 39.1619H19.7451C30.5286 39.1619 39.3124 30.3781 39.3223 19.5847C39.3247 17.0124 38.8182 14.465 37.8318 12.0893C36.8454 9.71359 35.3987 7.55655 33.575 5.74243H33.5775ZM19.7352 35.8488C16.8196 35.8498 13.9576 35.0652 11.4501 33.5776L10.8576 33.2221L4.7005 34.8367L6.34469 28.8302L5.95956 28.2105C4.32971 25.6191 3.46772 22.6189 3.47353 19.5576C3.47353 10.6059 10.7736 3.30331 19.7451 3.30331C21.8824 3.29948 23.9993 3.71874 25.9738 4.53692C27.9483 5.35511 29.7413 6.55604 31.2494 8.07047C32.7629 9.57899 33.9626 11.3722 34.7796 13.3468C35.5965 15.3213 36.0144 17.438 36.0092 19.5748C35.9993 28.5586 28.6992 35.8488 19.7352 35.8488ZM28.6597 23.668C28.1734 23.4236 25.7713 22.2411 25.3195 22.0732C24.8702 21.9127 24.5418 21.8288 24.2209 22.3176C23.8926 22.804 22.9544 23.9124 22.673 24.2309C22.3916 24.5592 22.1002 24.5963 21.6114 24.3543C21.1251 24.1075 19.5476 23.594 17.6812 21.9226C16.2246 20.6265 15.2495 19.0218 14.9582 18.5355C14.6767 18.0467 14.931 17.785 15.1754 17.5406C15.3902 17.3233 15.6617 16.9678 15.9062 16.6864C16.153 16.405 16.2345 16.1976 16.395 15.8717C16.5554 15.5409 16.4789 15.2595 16.3579 15.0151C16.2345 14.7707 15.2593 12.3587 14.8471 11.386C14.4521 10.4257 14.0497 10.559 13.7485 10.5466C13.467 10.5293 13.1387 10.5293 12.8103 10.5293C12.5624 10.5355 12.3184 10.5929 12.0937 10.6978C11.8689 10.8027 11.6683 10.953 11.5044 11.1391C11.0551 11.6279 9.79847 12.8105 9.79847 15.2224C9.79847 17.6344 11.5513 19.9526 11.7982 20.2809C12.0401 20.6092 15.2396 25.5443 20.1499 27.6674C21.3102 28.1735 22.2237 28.4722 22.9372 28.6993C24.1098 29.0746 25.1689 29.0178 26.0132 28.8968C26.9513 28.7537 28.9041 27.7118 29.3164 26.5688C29.7213 25.4233 29.7213 24.4457 29.5978 24.2408C29.4769 24.0334 29.1485 23.9124 28.6597 23.668Z" fill="white"/>
</svg>
