<svg width="11" height="10" viewBox="0 0 11 10" fill="none" xmlns="http://www.w3.org/2000/svg">
<path fill-rule="evenodd" clip-rule="evenodd" d="M5.50224 9.95402C8.19182 9.95402 10.3722 7.77504 10.3722 5.08712C10.3722 2.3992 8.19182 0.220215 5.50224 0.220215C2.81266 0.220215 0.632324 2.3992 0.632324 5.08712C0.632324 7.77504 2.81266 9.95402 5.50224 9.95402Z" fill="#262C2D"/>
<path fill-rule="evenodd" clip-rule="evenodd" d="M5.50219 8.12904C7.18318 8.12904 8.54589 6.76717 8.54589 5.08723C8.54589 3.40728 7.18318 2.04541 5.50219 2.04541C3.82121 2.04541 2.4585 3.40728 2.4585 5.08723C2.4585 6.76717 3.82121 8.12904 5.50219 8.12904Z" fill="#121515"/>
<path opacity="0.4" fill-rule="evenodd" clip-rule="evenodd" d="M5.50229 4.47893C5.83849 4.47893 6.11103 4.20656 6.11103 3.87057C6.11103 3.53458 5.83849 3.26221 5.50229 3.26221C5.1661 3.26221 4.89355 3.53458 4.89355 3.87057C4.89355 4.20656 5.1661 4.47893 5.50229 4.47893Z" fill="#636F73"/>
</svg>
