<svg width="60" height="60" viewBox="0 0 60 60" fill="none" xmlns="http://www.w3.org/2000/svg">
<rect width="60" height="60" rx="30" fill="#86EFAC"/>
<path d="M21.29 41.8417L18.5094 44.1742L18.5938 38.4105C18.5946 38.3173 18.5623 38.227 18.5025 38.1555L17.2719 36.6886C17.2392 36.6495 17.1992 36.6173 17.154 36.5938C17.1089 36.5702 17.0595 36.5558 17.0088 36.5513C16.958 36.5468 16.9069 36.5524 16.8583 36.5677C16.8098 36.583 16.7647 36.6077 16.7257 36.6405L11.3888 41.1186C11.3497 41.1513 11.3175 41.1914 11.294 41.2365C11.2704 41.2817 11.256 41.331 11.2515 41.3817C11.247 41.4325 11.2526 41.4836 11.2679 41.5322C11.2832 41.5808 11.3079 41.6258 11.3407 41.6648L12.5469 43.1017C12.5797 43.1407 12.6198 43.1728 12.665 43.1963C12.7102 43.2197 12.7596 43.234 12.8103 43.2384C12.8611 43.2427 12.9122 43.237 12.9607 43.2216C13.0092 43.2062 13.0542 43.1814 13.0932 43.1486L15.5607 41.078L15.5244 46.9848C15.5236 47.0766 15.5555 47.1657 15.6144 47.2361L16.7682 48.6105C16.8009 48.6496 16.841 48.6818 16.8863 48.7054C16.9315 48.7289 16.9809 48.7433 17.0317 48.7478C17.0826 48.7522 17.1337 48.7465 17.1823 48.7311C17.231 48.7157 17.2761 48.6908 17.315 48.658L23.0044 43.8836C23.0436 43.8509 23.0759 43.8108 23.0995 43.7656C23.1231 43.7204 23.1376 43.671 23.142 43.6202C23.1465 43.5693 23.1409 43.5182 23.1255 43.4695C23.1102 43.4209 23.0854 43.3758 23.0525 43.3367L21.8369 41.8886C21.7703 41.8103 21.6755 41.7614 21.5731 41.7527C21.4707 41.7439 21.369 41.7759 21.29 41.8417Z" fill="#15803D"/>
<path d="M32.5163 30.9557L28.4763 33.2888L29.8694 26.0088C29.8907 25.8913 29.8699 25.77 29.8107 25.6663L28.5788 23.5344C28.5461 23.4776 28.5026 23.4278 28.4507 23.3878C28.3988 23.3478 28.3394 23.3185 28.2762 23.3015C28.2129 23.2845 28.1469 23.2801 28.0819 23.2887C28.0169 23.2972 27.9543 23.3185 27.8975 23.3513L20.1413 27.8288C20.0845 27.8616 20.0347 27.9053 19.9948 27.9574C19.9548 28.0094 19.9256 28.0689 19.9086 28.1322C19.8917 28.1956 19.8874 28.2617 19.896 28.3268C19.9046 28.3918 19.9259 28.4545 19.9588 28.5113L21.1638 30.5988C21.1965 30.6556 21.2402 30.7054 21.2922 30.7453C21.3442 30.7852 21.4036 30.8145 21.4669 30.8314C21.5302 30.8484 21.5963 30.8527 21.6613 30.8441C21.7263 30.8355 21.7889 30.8141 21.8457 30.7813L25.4325 28.7107L24.0675 36.1801C24.0458 36.2965 24.0664 36.4169 24.1257 36.5194L25.2794 38.5176C25.3122 38.5743 25.3558 38.624 25.4077 38.6638C25.4597 38.7037 25.519 38.7329 25.5823 38.7498C25.6456 38.7667 25.7116 38.7709 25.7765 38.7623C25.8414 38.7536 25.904 38.7323 25.9607 38.6994L34.2313 33.9251C34.2881 33.8924 34.3379 33.8489 34.3779 33.7969C34.4179 33.745 34.4472 33.6857 34.4641 33.6224C34.4811 33.5591 34.4854 33.493 34.4767 33.4281C34.4681 33.3631 34.4467 33.3005 34.4138 33.2438L33.1982 31.1382C33.1319 31.0236 33.0228 30.94 32.895 30.9058C32.7671 30.8716 32.6309 30.8895 32.5163 30.9557Z" fill="#15803D"/>
<path d="M47.0819 20.4948L42.2106 22.2686L45.1394 14.5723C45.1859 14.4479 45.1866 14.311 45.1413 14.1861L44.2056 11.6148C44.1808 11.5465 44.1427 11.4838 44.0936 11.4302C44.0445 11.3766 43.9853 11.3332 43.9195 11.3025C43.8536 11.2718 43.7823 11.2544 43.7097 11.2512C43.6371 11.2481 43.5645 11.2593 43.4963 11.2842L34.1444 14.6867C34.0759 14.7115 34.0129 14.7496 33.9591 14.7987C33.9053 14.8479 33.8618 14.9071 33.8309 14.9732C33.8001 15.0392 33.7826 15.1106 33.7795 15.1834C33.7763 15.2562 33.7875 15.3289 33.8125 15.3973L34.7294 17.9142C34.7541 17.9827 34.7921 18.0456 34.8412 18.0994C34.8903 18.1531 34.9496 18.1966 35.0156 18.2273C35.0816 18.258 35.153 18.2754 35.2257 18.2784C35.2985 18.2814 35.3711 18.27 35.4394 18.2448L39.7638 16.6711L36.83 24.5817C36.7841 24.705 36.7834 24.8405 36.8281 24.9642L37.7044 27.373C37.7548 27.511 37.858 27.6234 37.9912 27.6854C38.1245 27.7474 38.2769 27.7539 38.415 27.7036L48.3856 24.0742C48.454 24.0493 48.5169 24.0112 48.5705 23.962C48.6242 23.9128 48.6677 23.8535 48.6984 23.7875C48.7292 23.7215 48.7467 23.6501 48.7498 23.5774C48.753 23.5047 48.7418 23.432 48.7169 23.3636L47.7925 20.8255C47.7419 20.6875 47.6387 20.5753 47.5055 20.5133C47.3723 20.4513 47.22 20.4447 47.0819 20.4948Z" fill="#15803D"/>
</svg>
