<svg width="8" height="12" viewBox="0 0 8 12" fill="none" xmlns="http://www.w3.org/2000/svg">
<path d="M7.38926 6.77851L1.71588 11.7419C1.04836 12.3277 3.74058e-07 11.8516 3.35199e-07 10.9627L-9.8718e-08 1.0358C-0.000170689 0.836843 0.0570105 0.642055 0.164696 0.474761C0.272382 0.307467 0.426007 0.17476 0.607174 0.0925302C0.788342 0.0103006 0.989372 -0.0179663 1.18619 0.0111169C1.38301 0.0402002 1.56727 0.125399 1.71692 0.256511L7.38822 5.21994C7.49938 5.31708 7.58847 5.43687 7.64952 5.57128C7.71056 5.70569 7.74214 5.85161 7.74214 5.99923C7.74214 6.14685 7.71056 6.29276 7.64952 6.42717C7.58847 6.56158 7.49938 6.68138 7.38822 6.77851L7.38926 6.77851Z" fill="#6B7280"/>
</svg>
