<svg width="85" height="84" viewBox="0 0 85 84" fill="none" xmlns="http://www.w3.org/2000/svg">
<rect x="0.333252" width="84" height="84" rx="42" fill="url(#paint0_linear)"/>
<path d="M19.07 40.52C18.9433 40.52 18.8367 40.4667 18.75 40.36L17.66 39.06C17.4933 39.0867 17.2933 39.1 17.06 39.1C16.36 39.1 15.7467 38.9467 15.22 38.64C14.6933 38.3333 14.2867 37.91 14 37.37C13.7133 36.83 13.5633 36.21 13.55 35.51C13.5633 34.81 13.7133 34.19 14 33.65C14.2867 33.11 14.6933 32.6867 15.22 32.38C15.7467 32.0733 16.36 31.92 17.06 31.92C17.76 31.92 18.37 32.0733 18.89 32.38C19.4167 32.6867 19.8233 33.1133 20.11 33.66C20.4033 34.2 20.5567 34.8167 20.57 35.51C20.5567 36.29 20.3667 36.9733 20 37.56C19.64 38.14 19.14 38.5633 18.5 38.83L19.38 39.8C19.46 39.88 19.5 39.9767 19.5 40.09C19.5067 40.2033 19.4667 40.3033 19.38 40.39C19.2933 40.4767 19.19 40.52 19.07 40.52ZM17.06 38.25C17.5933 38.25 18.0567 38.13 18.45 37.89C18.8433 37.65 19.1433 37.3233 19.35 36.91C19.5567 36.4967 19.66 36.03 19.66 35.51C19.66 34.99 19.5567 34.5233 19.35 34.11C19.1433 33.6967 18.8433 33.37 18.45 33.13C18.0567 32.89 17.5933 32.77 17.06 32.77C16.52 32.77 16.0533 32.89 15.66 33.13C15.2733 33.37 14.9767 33.6967 14.77 34.11C14.5633 34.5233 14.46 34.99 14.46 35.51C14.46 36.03 14.5633 36.4967 14.77 36.91C14.9767 37.3233 15.2733 37.65 15.66 37.89C16.0533 38.13 16.52 38.25 17.06 38.25ZM24.9052 39.1C24.4319 39.1 23.9752 39 23.5352 38.8C23.0952 38.6 22.7352 38.2967 22.4552 37.89C22.1752 37.4767 22.0352 36.9733 22.0352 36.38V32.43C22.0352 32.3033 22.0786 32.1967 22.1652 32.11C22.2519 32.0167 22.3586 31.97 22.4852 31.97C22.6119 31.97 22.7186 32.0167 22.8052 32.11C22.8986 32.1967 22.9452 32.3033 22.9452 32.43V36.41C22.9452 36.81 23.0352 37.15 23.2152 37.43C23.4019 37.71 23.6452 37.92 23.9452 38.06C24.2452 38.2 24.5652 38.27 24.9052 38.27C25.2452 38.27 25.5652 38.2 25.8652 38.06C26.1652 37.92 26.4052 37.71 26.5852 37.43C26.7719 37.15 26.8652 36.81 26.8652 36.41V32.43C26.8652 32.3033 26.9086 32.1967 26.9952 32.11C27.0819 32.0167 27.1886 31.97 27.3152 31.97C27.4419 31.97 27.5486 32.0167 27.6352 32.11C27.7286 32.1967 27.7752 32.3033 27.7752 32.43V36.38C27.7752 36.9733 27.6352 37.4767 27.3552 37.89C27.0752 38.2967 26.7152 38.6 26.2752 38.8C25.8352 39 25.3786 39.1 24.9052 39.1ZM29.448 39.05C29.3147 39.05 29.2047 39.0067 29.118 38.92C29.038 38.8333 28.998 38.7267 28.998 38.6C28.998 38.5467 29.0147 38.48 29.048 38.4L31.598 32.38C31.6514 32.26 31.7247 32.1633 31.818 32.09C31.918 32.01 32.038 31.97 32.178 31.97H32.278C32.418 31.97 32.5347 32.01 32.628 32.09C32.728 32.1633 32.8047 32.26 32.858 32.38L35.408 38.4C35.4414 38.48 35.458 38.5467 35.458 38.6C35.458 38.7267 35.4147 38.8333 35.328 38.92C35.248 39.0067 35.1414 39.05 35.008 39.05C34.9147 39.05 34.828 39.0267 34.748 38.98C34.6747 38.9267 34.618 38.8567 34.578 38.77L33.928 37.21H30.528L29.878 38.77C29.838 38.8567 29.778 38.9267 29.698 38.98C29.6247 39.0267 29.5414 39.05 29.448 39.05ZM30.878 36.38H33.578L32.228 33.13L30.878 36.38ZM37.559 39C37.3857 39 37.2357 38.94 37.109 38.82C36.989 38.6933 36.929 38.5433 36.929 38.37V32.43C36.929 32.3033 36.9723 32.1967 37.059 32.11C37.1457 32.0167 37.2523 31.97 37.379 31.97C37.5057 31.97 37.6123 32.0167 37.699 32.11C37.7923 32.1967 37.839 32.3033 37.839 32.43V38.09H41.109C41.2357 38.09 41.3423 38.1367 41.429 38.23C41.5223 38.3167 41.569 38.4233 41.569 38.55C41.569 38.6767 41.5223 38.7833 41.429 38.87C41.3423 38.9567 41.2357 39 41.109 39H37.559ZM43.1407 39.05C43.014 39.05 42.9074 39.0067 42.8207 38.92C42.734 38.8333 42.6907 38.7267 42.6907 38.6V32.43C42.6907 32.3033 42.734 32.1967 42.8207 32.11C42.9074 32.0167 43.014 31.97 43.1407 31.97C43.2674 31.97 43.374 32.0167 43.4607 32.11C43.554 32.1967 43.6007 32.3033 43.6007 32.43V38.6C43.6007 38.7267 43.554 38.8333 43.4607 38.92C43.374 39.0067 43.2674 39.05 43.1407 39.05ZM45.9923 39C45.8656 39 45.7589 38.9567 45.6723 38.87C45.5856 38.7833 45.5423 38.6767 45.5423 38.55V32.48C45.5423 32.3533 45.5856 32.2467 45.6723 32.16C45.7589 32.0667 45.8656 32.02 45.9923 32.02H48.0023C48.7623 32.02 49.4056 32.19 49.9323 32.53C50.4656 32.8633 50.8656 33.2967 51.1323 33.83C51.3989 34.3633 51.5323 34.9233 51.5323 35.51C51.5323 36.0967 51.3989 36.6567 51.1323 37.19C50.8656 37.7233 50.4656 38.16 49.9323 38.5C49.4056 38.8333 48.7623 39 48.0023 39H45.9923ZM47.8923 38.15C48.4389 38.15 48.9189 38.04 49.3323 37.82C49.7456 37.5933 50.0656 37.2833 50.2923 36.89C50.5189 36.49 50.6323 36.03 50.6323 35.51C50.6323 34.99 50.5189 34.5333 50.2923 34.14C50.0656 33.74 49.7456 33.43 49.3323 33.21C48.9189 32.9833 48.4389 32.87 47.8923 32.87H46.4523V38.15H47.8923ZM52.8855 39.05C52.7522 39.05 52.6422 39.0067 52.5555 38.92C52.4755 38.8333 52.4355 38.7267 52.4355 38.6C52.4355 38.5467 52.4522 38.48 52.4855 38.4L55.0355 32.38C55.0889 32.26 55.1622 32.1633 55.2555 32.09C55.3555 32.01 55.4755 31.97 55.6155 31.97H55.7155C55.8555 31.97 55.9722 32.01 56.0655 32.09C56.1655 32.1633 56.2422 32.26 56.2955 32.38L58.8455 38.4C58.8789 38.48 58.8955 38.5467 58.8955 38.6C58.8955 38.7267 58.8522 38.8333 58.7655 38.92C58.6855 39.0067 58.5789 39.05 58.4455 39.05C58.3522 39.05 58.2655 39.0267 58.1855 38.98C58.1122 38.9267 58.0555 38.8567 58.0155 38.77L57.3655 37.21H53.9655L53.3155 38.77C53.2755 38.8567 53.2155 38.9267 53.1355 38.98C53.0622 39.0267 52.9789 39.05 52.8855 39.05ZM54.3155 36.38H57.0155L55.6655 33.13L54.3155 36.38ZM60.8165 39C60.6898 39 60.5832 38.9567 60.4965 38.87C60.4098 38.7833 60.3665 38.6767 60.3665 38.55V32.48C60.3665 32.3533 60.4098 32.2467 60.4965 32.16C60.5832 32.0667 60.6898 32.02 60.8165 32.02H62.8265C63.5865 32.02 64.2298 32.19 64.7565 32.53C65.2898 32.8633 65.6898 33.2967 65.9565 33.83C66.2232 34.3633 66.3565 34.9233 66.3565 35.51C66.3565 36.0967 66.2232 36.6567 65.9565 37.19C65.6898 37.7233 65.2898 38.16 64.7565 38.5C64.2298 38.8333 63.5865 39 62.8265 39H60.8165ZM62.7165 38.15C63.2632 38.15 63.7432 38.04 64.1565 37.82C64.5698 37.5933 64.8898 37.2833 65.1165 36.89C65.3432 36.49 65.4565 36.03 65.4565 35.51C65.4565 34.99 65.3432 34.5333 65.1165 34.14C64.8898 33.74 64.5698 33.43 64.1565 33.21C63.7432 32.9833 63.2632 32.87 62.7165 32.87H61.2765V38.15H62.7165ZM68.3263 39C68.1996 39 68.0929 38.9567 68.0063 38.87C67.9196 38.7833 67.8763 38.6767 67.8763 38.55V32.48C67.8763 32.3533 67.9196 32.2467 68.0063 32.16C68.0929 32.0667 68.1996 32.02 68.3263 32.02H72.3363C72.4563 32.02 72.5563 32.0633 72.6363 32.15C72.7229 32.23 72.7663 32.33 72.7663 32.45C72.7663 32.57 72.7229 32.67 72.6363 32.75C72.5563 32.83 72.4563 32.87 72.3363 32.87H68.7863V35.08H71.9763C72.0963 35.08 72.1963 35.1233 72.2763 35.21C72.3629 35.29 72.4063 35.39 72.4063 35.51C72.4063 35.63 72.3629 35.73 72.2763 35.81C72.1963 35.89 72.0963 35.93 71.9763 35.93H68.7863V38.15H72.3363C72.4563 38.15 72.5563 38.1933 72.6363 38.28C72.7229 38.36 72.7663 38.46 72.7663 38.58C72.7663 38.7 72.7229 38.8 72.6363 38.88C72.5563 38.96 72.4563 39 72.3363 39H68.3263Z" fill="white"/>
<path d="M17.06 52.1C16.3733 52.1 15.7633 51.95 15.23 51.65C14.6967 51.3433 14.2833 50.92 13.99 50.38C13.6967 49.8333 13.55 49.2133 13.55 48.52C13.55 47.8133 13.7033 47.1867 14.01 46.64C14.3167 46.0933 14.7333 45.67 15.26 45.37C15.7933 45.07 16.3833 44.92 17.03 44.92C17.55 44.92 18.0033 44.9833 18.39 45.11C18.7833 45.2367 19.16 45.4133 19.52 45.64C19.5733 45.6667 19.62 45.7133 19.66 45.78C19.7 45.8467 19.72 45.92 19.72 46C19.72 46.1133 19.68 46.21 19.6 46.29C19.5267 46.37 19.4267 46.41 19.3 46.41C19.2267 46.41 19.1567 46.3933 19.09 46.36C18.7767 46.1733 18.4633 46.0333 18.15 45.94C17.8367 45.8467 17.4967 45.8 17.13 45.8C16.6233 45.8 16.1667 45.9067 15.76 46.12C15.3533 46.3333 15.0333 46.6467 14.8 47.06C14.5733 47.4667 14.46 47.9533 14.46 48.52C14.46 49.04 14.5667 49.5067 14.78 49.92C15 50.3267 15.3133 50.65 15.72 50.89C16.1333 51.1233 16.62 51.24 17.18 51.24C17.8067 51.24 18.39 51.0933 18.93 50.8V48.99H17.28C17.1667 48.99 17.07 48.95 16.99 48.87C16.91 48.79 16.87 48.6933 16.87 48.58C16.87 48.4667 16.91 48.37 16.99 48.29C17.07 48.21 17.1667 48.17 17.28 48.17H19.25C19.3833 48.17 19.4967 48.2167 19.59 48.31C19.6833 48.4033 19.73 48.5167 19.73 48.65V50.92C19.73 51.06 19.6933 51.1867 19.62 51.3C19.5533 51.4067 19.4633 51.4867 19.35 51.54C18.6033 51.9133 17.84 52.1 17.06 52.1ZM21.5184 52.05C21.385 52.05 21.275 52.0067 21.1884 51.92C21.1084 51.8333 21.0684 51.7267 21.0684 51.6C21.0684 51.5467 21.085 51.48 21.1184 51.4L23.6684 45.38C23.7217 45.26 23.795 45.1633 23.8884 45.09C23.9884 45.01 24.1084 44.97 24.2484 44.97H24.3484C24.4884 44.97 24.605 45.01 24.6984 45.09C24.7984 45.1633 24.875 45.26 24.9284 45.38L27.4784 51.4C27.5117 51.48 27.5284 51.5467 27.5284 51.6C27.5284 51.7267 27.485 51.8333 27.3984 51.92C27.3184 52.0067 27.2117 52.05 27.0784 52.05C26.985 52.05 26.8984 52.0267 26.8184 51.98C26.745 51.9267 26.6884 51.8567 26.6484 51.77L25.9984 50.21H22.5984L21.9484 51.77C21.9084 51.8567 21.8484 51.9267 21.7684 51.98C21.695 52.0267 21.6117 52.05 21.5184 52.05ZM22.9484 49.38H25.6484L24.2984 46.13L22.9484 49.38ZM29.4493 52.05C29.3226 52.05 29.216 52.0067 29.1293 51.92C29.0426 51.8333 28.9993 51.7267 28.9993 51.6V45.48C28.9993 45.3533 29.0426 45.2467 29.1293 45.16C29.216 45.0667 29.3226 45.02 29.4493 45.02H31.7793C32.686 45.02 33.366 45.2067 33.8193 45.58C34.2726 45.9533 34.4993 46.4433 34.4993 47.05C34.4993 47.45 34.386 47.8167 34.1593 48.15C33.9393 48.4767 33.616 48.7133 33.1893 48.86C33.6693 48.9867 33.996 49.2867 34.1693 49.76C34.3493 50.2267 34.4393 50.6867 34.4393 51.14V51.6C34.4393 51.7267 34.396 51.8333 34.3093 51.92C34.2226 52.0067 34.116 52.05 33.9893 52.05C33.8493 52.05 33.736 52.01 33.6493 51.93C33.5693 51.8433 33.5293 51.7333 33.5293 51.6V51.3C33.5293 50.9667 33.4993 50.66 33.4393 50.38C33.3793 50.0933 33.236 49.84 33.0093 49.62C32.7826 49.3933 32.4393 49.28 31.9793 49.28H29.9093V51.6C29.9093 51.7267 29.8626 51.8333 29.7693 51.92C29.6826 52.0067 29.576 52.05 29.4493 52.05ZM31.7193 48.42C32.2926 48.42 32.746 48.3067 33.0793 48.08C33.4193 47.8533 33.5893 47.5333 33.5893 47.12C33.5893 46.72 33.4426 46.4133 33.1493 46.2C32.8626 45.9867 32.3693 45.88 31.6693 45.88H29.9093V48.42H31.7193ZM36.0984 52.05C35.9651 52.05 35.8551 52.0067 35.7684 51.92C35.6884 51.8333 35.6484 51.7267 35.6484 51.6C35.6484 51.5467 35.6651 51.48 35.6984 51.4L38.2484 45.38C38.3018 45.26 38.3751 45.1633 38.4684 45.09C38.5684 45.01 38.6884 44.97 38.8284 44.97H38.9284C39.0684 44.97 39.1851 45.01 39.2784 45.09C39.3784 45.1633 39.4551 45.26 39.5084 45.38L42.0584 51.4C42.0918 51.48 42.1084 51.5467 42.1084 51.6C42.1084 51.7267 42.0651 51.8333 41.9784 51.92C41.8984 52.0067 41.7918 52.05 41.6584 52.05C41.5651 52.05 41.4784 52.0267 41.3984 51.98C41.3251 51.9267 41.2684 51.8567 41.2284 51.77L40.5784 50.21H37.1784L36.5284 51.77C36.4884 51.8567 36.4284 51.9267 36.3484 51.98C36.2751 52.0267 36.1918 52.05 36.0984 52.05ZM37.5284 49.38H40.2284L38.8784 46.13L37.5284 49.38ZM44.0294 52.05C43.9027 52.05 43.796 52.0067 43.7094 51.92C43.6227 51.8333 43.5794 51.7267 43.5794 51.6V45.63C43.5794 45.45 43.6427 45.2967 43.7694 45.17C43.896 45.0367 44.0494 44.97 44.2294 44.97H44.3594C44.5727 44.97 44.756 45.07 44.9094 45.27L48.7594 50.83V45.43C48.7594 45.3033 48.8027 45.1967 48.8894 45.11C48.976 45.0167 49.0827 44.97 49.2094 44.97C49.336 44.97 49.4427 45.0167 49.5294 45.11C49.6227 45.1967 49.6694 45.3033 49.6694 45.43V51.4C49.6694 51.58 49.6027 51.7333 49.4694 51.86C49.3427 51.9867 49.1894 52.05 49.0094 52.05H48.8894C48.7827 52.05 48.6827 52.0267 48.5894 51.98C48.496 51.9267 48.4194 51.86 48.3594 51.78L44.4894 46.19V51.6C44.4894 51.7267 44.4427 51.8333 44.3494 51.92C44.2627 52.0067 44.156 52.05 44.0294 52.05ZM53.6767 52.05C53.5501 52.05 53.4434 52.0067 53.3567 51.92C53.2701 51.8333 53.2267 51.7267 53.2267 51.6V45.87H51.1867C51.0667 45.87 50.9667 45.83 50.8867 45.75C50.8067 45.67 50.7667 45.57 50.7667 45.45C50.7667 45.33 50.8067 45.23 50.8867 45.15C50.9667 45.0633 51.0667 45.02 51.1867 45.02H56.1667C56.2867 45.02 56.3867 45.0633 56.4667 45.15C56.5534 45.23 56.5967 45.33 56.5967 45.45C56.5967 45.57 56.5534 45.67 56.4667 45.75C56.3867 45.83 56.2867 45.87 56.1667 45.87H54.1367V51.6C54.1367 51.7267 54.0901 51.8333 53.9967 51.92C53.9101 52.0067 53.8034 52.05 53.6767 52.05ZM58.1505 52.05C58.0238 52.05 57.9171 52.0067 57.8305 51.92C57.7438 51.8333 57.7005 51.7267 57.7005 51.6V45.43C57.7005 45.3033 57.7438 45.1967 57.8305 45.11C57.9171 45.0167 58.0238 44.97 58.1505 44.97C58.2771 44.97 58.3838 45.0167 58.4705 45.11C58.5638 45.1967 58.6105 45.3033 58.6105 45.43V51.6C58.6105 51.7267 58.5638 51.8333 58.4705 51.92C58.3838 52.0067 58.2771 52.05 58.1505 52.05ZM61.002 52C60.8754 52 60.7687 51.9567 60.682 51.87C60.5954 51.7833 60.552 51.6767 60.552 51.55V45.48C60.552 45.3533 60.5954 45.2467 60.682 45.16C60.7687 45.0667 60.8754 45.02 61.002 45.02H63.012C63.772 45.02 64.4154 45.19 64.942 45.53C65.4754 45.8633 65.8754 46.2967 66.142 46.83C66.4087 47.3633 66.542 47.9233 66.542 48.51C66.542 49.0967 66.4087 49.6567 66.142 50.19C65.8754 50.7233 65.4754 51.16 64.942 51.5C64.4154 51.8333 63.772 52 63.012 52H61.002ZM62.902 51.15C63.4487 51.15 63.9287 51.04 64.342 50.82C64.7554 50.5933 65.0754 50.2833 65.302 49.89C65.5287 49.49 65.642 49.03 65.642 48.51C65.642 47.99 65.5287 47.5333 65.302 47.14C65.0754 46.74 64.7554 46.43 64.342 46.21C63.9287 45.9833 63.4487 45.87 62.902 45.87H61.462V51.15H62.902ZM67.8953 52.05C67.762 52.05 67.652 52.0067 67.5653 51.92C67.4853 51.8333 67.4453 51.7267 67.4453 51.6C67.4453 51.5467 67.462 51.48 67.4953 51.4L70.0453 45.38C70.0986 45.26 70.172 45.1633 70.2653 45.09C70.3653 45.01 70.4853 44.97 70.6253 44.97H70.7253C70.8653 44.97 70.982 45.01 71.0753 45.09C71.1753 45.1633 71.252 45.26 71.3053 45.38L73.8553 51.4C73.8886 51.48 73.9053 51.5467 73.9053 51.6C73.9053 51.7267 73.862 51.8333 73.7753 51.92C73.6953 52.0067 73.5886 52.05 73.4553 52.05C73.362 52.05 73.2753 52.0267 73.1953 51.98C73.122 51.9267 73.0653 51.8567 73.0253 51.77L72.3753 50.21H68.9753L68.3253 51.77C68.2853 51.8567 68.2253 51.9267 68.1453 51.98C68.072 52.0267 67.9886 52.05 67.8953 52.05ZM69.3253 49.38H72.0253L70.6753 46.13L69.3253 49.38Z" fill="white"/>
<defs>
<linearGradient id="paint0_linear" x1="42.3333" y1="0" x2="42.3333" y2="84" gradientUnits="userSpaceOnUse">
<stop stop-color="#4B5563"/>
<stop offset="1" stop-color="#111827"/>
</linearGradient>
</defs>
</svg>
