<svg width="76" height="51" viewBox="0 0 76 51" fill="none" xmlns="http://www.w3.org/2000/svg">
<rect width="76" height="51" rx="12" fill="#111827" fill-opacity="0.6"/>
<path d="M38 12.875C30.752 12.875 24.875 18.752 24.875 26C24.875 33.248 30.752 39.125 38 39.125C45.248 39.125 51.125 33.248 51.125 26C51.125 18.752 45.248 12.875 38 12.875ZM42.2217 26.2021L35.8232 30.8574C35.7882 30.8826 35.7468 30.8977 35.7037 30.9009C35.6607 30.9042 35.6175 30.8955 35.5791 30.8758C35.5406 30.8561 35.5083 30.8262 35.4858 30.7894C35.4632 30.7525 35.4512 30.7102 35.4512 30.667V21.3623C35.451 21.319 35.4629 21.2765 35.4854 21.2396C35.5079 21.2026 35.5402 21.1726 35.5788 21.1529C35.6173 21.1332 35.6605 21.1245 35.7037 21.1279C35.7468 21.1312 35.7882 21.1464 35.8232 21.1719L42.2217 25.8242C42.2519 25.8456 42.2766 25.8739 42.2936 25.9068C42.3106 25.9397 42.3195 25.9762 42.3195 26.0132C42.3195 26.0502 42.3106 26.0867 42.2936 26.1196C42.2766 26.1525 42.2519 26.1808 42.2217 26.2021Z" fill="white"/>
</svg>
