<svg width="60" height="60" viewBox="0 0 60 60" fill="" xmlns="http://www.w3.org/2000/svg">
<rect width="60" height="60" rx="30" fill="#FECACA"/>
<path d="M15.4984 39.3266C16.2184 41.5466 18.4067 42.9633 20.7417 42.9633H20.8334C21.0476 44.0088 21.6162 44.9483 22.4431 45.6231C23.27 46.2978 24.3045 46.6664 25.3717 46.6666C26.1334 46.6666 26.845 46.4749 27.475 46.1449C27.738 46.0008 27.9567 45.7878 28.1079 45.5289C28.2591 45.2699 28.3371 44.9748 28.3334 44.6749V15.0449C28.3367 14.6631 28.2085 14.2917 27.9702 13.9934C27.7319 13.695 27.3982 13.4878 27.025 13.4066C26.1889 13.2442 25.3225 13.3619 24.56 13.7416C23.32 14.3349 22.5934 15.6599 22.5934 17.0383V17.1299C21.6654 16.9405 20.7017 17.0403 19.8321 17.4157C18.9626 17.7911 18.2291 18.4242 17.7307 19.2295C17.2322 20.0348 16.9927 20.9737 17.0444 21.9194C17.0961 22.8651 17.4367 23.7721 18.02 24.5183C16.7135 24.723 15.5232 25.3879 14.6638 26.3931C13.8044 27.3982 13.3325 28.6775 13.3334 29.9999C13.3334 31.9633 14.3517 33.6849 15.8884 34.6866C15.1717 35.9716 14.9367 37.5966 15.4984 39.3266ZM41.98 24.5183C42.5634 23.7721 42.9039 22.8651 42.9557 21.9194C43.0074 20.9737 42.7679 20.0348 42.2694 19.2295C41.7709 18.4242 41.0375 17.7911 40.1679 17.4157C39.2984 17.0403 38.3347 16.9405 37.4067 17.1299V17.0383C37.4067 15.6616 36.6784 14.3349 35.4384 13.7416C34.6765 13.3618 33.8106 13.2441 32.975 13.4066C32.6021 13.4881 32.2685 13.6953 32.0302 13.9937C31.792 14.292 31.6637 14.6632 31.6667 15.0449V44.6733C31.6667 45.2816 31.9867 45.8599 32.5267 46.1433C33.1567 46.4749 33.8667 46.6666 34.6284 46.6666C35.6959 46.6663 36.7305 46.2975 37.5575 45.6224C38.3844 44.9473 38.9528 44.0074 39.1667 42.9616H39.26C41.5934 42.9616 43.7834 41.5449 44.5034 39.3249C45.065 37.5949 44.83 35.9699 44.1134 34.6849C44.8962 34.1792 45.5399 33.4855 45.9859 32.6672C46.4319 31.8488 46.6659 30.9319 46.6667 29.9999C46.6675 28.6775 46.1957 27.3982 45.3363 26.3931C44.4769 25.3879 43.2866 24.723 41.98 24.5183Z" fill="#b91c1c"/>
</svg>
