<svg width="41" height="41" viewBox="0 0 41 41" fill="none" xmlns="http://www.w3.org/2000/svg">
<rect x="0.5" y="0.5" width="40" height="40" rx="20" fill="#C3DFF0"/>
<g clip-path="url(#clip0)">
<path d="M10.75 22.1252L9.93754 20.5002H15.625L14.975 18.8752H9.66671L8.85421 17.2502H17.3042L16.6542 15.6252H8.70254L7.77087 14.0002H11.8334C11.8334 13.4255 12.0616 12.8744 12.468 12.4681C12.8743 12.0618 13.4254 11.8335 14 11.8335H27V16.1668H30.25L33.5 20.5002V25.9168H31.3334C31.3334 26.7788 30.991 27.6054 30.3815 28.2149C29.772 28.8244 28.9453 29.1668 28.0834 29.1668C27.2214 29.1668 26.3948 28.8244 25.7853 28.2149C25.1758 27.6054 24.8334 26.7788 24.8334 25.9168H20.5C20.5 26.7788 20.1576 27.6054 19.5481 28.2149C18.9386 28.8244 18.112 29.1668 17.25 29.1668C16.3881 29.1668 15.5614 28.8244 14.9519 28.2149C14.3425 27.6054 14 26.7788 14 25.9168H11.8334V22.1252H10.75ZM28.0834 27.5418C28.5143 27.5418 28.9277 27.3706 29.2324 27.0659C29.5372 26.7611 29.7084 26.3478 29.7084 25.9168C29.7084 25.4859 29.5372 25.0725 29.2324 24.7678C28.9277 24.463 28.5143 24.2918 28.0834 24.2918C27.6524 24.2918 27.2391 24.463 26.9343 24.7678C26.6296 25.0725 26.4584 25.4859 26.4584 25.9168C26.4584 26.3478 26.6296 26.7611 26.9343 27.0659C27.2391 27.3706 27.6524 27.5418 28.0834 27.5418ZM29.7084 17.7918H27V20.5002H31.8317L29.7084 17.7918ZM17.25 27.5418C17.681 27.5418 18.0943 27.3706 18.3991 27.0659C18.7038 26.7611 18.875 26.3478 18.875 25.9168C18.875 25.4859 18.7038 25.0725 18.3991 24.7678C18.0943 24.463 17.681 24.2918 17.25 24.2918C16.8191 24.2918 16.4057 24.463 16.101 24.7678C15.7962 25.0725 15.625 25.4859 15.625 25.9168C15.625 26.3478 15.7962 26.7611 16.101 27.0659C16.4057 27.3706 16.8191 27.5418 17.25 27.5418Z" fill="#3B82F6"/>
</g>
<defs>
<clipPath id="clip0">
<rect width="26" height="26" fill="white" transform="translate(7.5 7.5)"/>
</clipPath>
</defs>
</svg>
