<svg width="84" height="84" viewBox="0 0 84 84" fill="none" xmlns="http://www.w3.org/2000/svg">
<rect width="84" height="84" rx="42" fill="url(#paint0_linear)"/>
<path d="M37.4584 25.75C37.3147 25.75 37.1769 25.8071 37.0754 25.9087C36.9738 26.0102 36.9167 26.148 36.9167 26.2917V34.9583C36.9167 35.3893 36.7455 35.8026 36.4408 36.1074C36.136 36.4121 35.7227 36.5833 35.2917 36.5833H26.625C26.4814 36.5833 26.3436 36.6404 26.242 36.742C26.1404 36.8436 26.0834 36.9813 26.0834 37.125V46.875C26.0834 47.174 26.326 47.4167 26.625 47.4167H35.2917C35.7227 47.4167 36.136 47.5879 36.4408 47.8926C36.7455 48.1974 36.9167 48.6107 36.9167 49.0417V57.7083C36.9167 58.0073 37.1594 58.25 37.4584 58.25H47.2084C47.352 58.25 47.4898 58.1929 47.5914 58.0914C47.693 57.9898 47.75 57.852 47.75 57.7083V49.0417C47.75 48.6107 47.9212 48.1974 48.226 47.8926C48.5307 47.5879 48.9441 47.4167 49.375 47.4167H58.0417C58.1854 47.4167 58.3231 47.3596 58.4247 47.258C58.5263 47.1564 58.5834 47.0187 58.5834 46.875V37.125C58.5834 36.9813 58.5263 36.8436 58.4247 36.742C58.3231 36.6404 58.1854 36.5833 58.0417 36.5833H49.375C48.9441 36.5833 48.5307 36.4121 48.226 36.1074C47.9212 35.8026 47.75 35.3893 47.75 34.9583V26.2917C47.75 26.148 47.693 26.0102 47.5914 25.9087C47.4898 25.8071 47.352 25.75 47.2084 25.75H37.4584ZM33.6667 26.2917C33.6667 24.1987 35.3654 22.5 37.4584 22.5H47.2084C49.3014 22.5 51 24.1987 51 26.2917V33.3333H58.0417C60.1347 33.3333 61.8334 35.032 61.8334 37.125V46.875C61.8334 47.8806 61.4339 48.845 60.7228 49.5561C60.0117 50.2672 59.0473 50.6667 58.0417 50.6667H51V57.7083C51 58.7139 50.6006 59.6784 49.8895 60.3894C49.1784 61.1005 48.214 61.5 47.2084 61.5H37.4584C36.4528 61.5 35.4883 61.1005 34.7773 60.3894C34.0662 59.6784 33.6667 58.7139 33.6667 57.7083V50.6667H26.625C25.6194 50.6667 24.655 50.2672 23.9439 49.5561C23.2329 48.845 22.8334 47.8806 22.8334 46.875V37.125C22.8334 35.032 24.532 33.3333 26.625 33.3333H33.6667V26.2917Z" fill="white"/>
<defs>
<linearGradient id="paint0_linear" x1="18.1667" y1="6" x2="42" y2="84" gradientUnits="userSpaceOnUse">
<stop stop-color="#FCA5A5"/>
<stop offset="1" stop-color="#DC2626"/>
</linearGradient>
</defs>
</svg>
