<svg width="27" height="27" viewBox="0 0 27 27" fill="none" xmlns="http://www.w3.org/2000/svg">
<path d="M26.9249 9.69302C26.8401 9.44312 26.6839 9.22354 26.4757 9.06138C26.2675 8.89923 26.0163 8.8016 25.7533 8.78054L18.0579 8.16907L14.7279 0.7977C14.6219 0.560284 14.4494 0.358633 14.2313 0.217085C14.0131 0.0755376 13.7587 0.000142918 13.4987 2.02984e-07C13.2387 -0.000142512 12.9841 0.0749729 12.7659 0.216281C12.5476 0.357589 12.3749 0.55905 12.2686 0.796351L8.93855 8.16907L1.24322 8.78054C0.98467 8.80102 0.737494 8.89556 0.531264 9.05284C0.325034 9.21012 0.168484 9.42349 0.0803406 9.66741C-0.00780248 9.91134 -0.0238054 10.1755 0.0342466 10.4283C0.0922985 10.6811 0.221947 10.9118 0.407682 11.0928L6.09448 16.6365L4.08324 25.3455C4.02217 25.6092 4.04175 25.8851 4.13942 26.1374C4.2371 26.3898 4.40837 26.6069 4.631 26.7607C4.85364 26.9146 5.11737 26.9979 5.38796 27C5.65855 27.002 5.92352 26.9227 6.14847 26.7723L13.4982 21.8725L20.848 26.7723C21.0779 26.925 21.3491 27.0036 21.625 26.9975C21.9009 26.9914 22.1684 26.901 22.3914 26.7385C22.6144 26.5759 22.7823 26.3489 22.8724 26.088C22.9626 25.8272 22.9707 25.545 22.8957 25.2794L20.4269 16.6405L26.5497 11.1306C26.9506 10.7688 27.0977 10.2046 26.9249 9.69302Z" fill="white"/>
</svg>
