<svg width="43" height="42" viewBox="0 0 43 42" fill="none" xmlns="http://www.w3.org/2000/svg">
<path d="M42.2568 19.6803L38.5368 15.4203L39.0568 9.78034C39.1568 8.78034 38.4768 7.86034 37.5168 7.64034L31.9968 6.40034L29.1168 1.52034C28.5968 0.660339 27.5368 0.300339 26.5968 0.700339L21.4168 2.92034L16.2368 0.700339C15.3168 0.300339 14.2368 0.660339 13.7368 1.52034L10.8368 6.38034L5.33677 7.62034C4.35677 7.84034 3.67677 8.74034 3.77677 9.74034L4.29677 15.4003L0.556768 19.6803C-0.103232 20.4403 -0.103232 21.5603 0.556768 22.3203L4.29677 26.5803L3.77677 32.2403C3.67677 33.2403 4.35677 34.1603 5.31677 34.3803L10.8368 35.6403L13.7168 40.5003C14.2368 41.3603 15.3168 41.7203 16.2368 41.3203L21.4168 39.0603L26.5968 41.2803C27.5168 41.6803 28.5968 41.3203 29.0968 40.4603L31.9768 35.6003L37.4968 34.3403C38.4768 34.1203 39.1368 33.2003 39.0368 32.2003L38.5168 26.5603L42.2368 22.3003C42.5628 21.943 42.7452 21.4778 42.7489 20.9942C42.7526 20.5105 42.5773 20.0426 42.2568 19.6803ZM17.8768 26.6603L13.6368 22.4203C13.4516 22.2352 13.3047 22.0154 13.2045 21.7734C13.1043 21.5315 13.0527 21.2722 13.0527 21.0103C13.0527 20.7485 13.1043 20.4892 13.2045 20.2473C13.3047 20.0053 13.4516 19.7855 13.6368 19.6003C13.8219 19.4152 14.0418 19.2683 14.2837 19.1681C14.5256 19.0679 14.7849 19.0163 15.0468 19.0163C15.3086 19.0163 15.5679 19.0679 15.8099 19.1681C16.0518 19.2683 16.2716 19.4152 16.4568 19.6003L19.2768 22.4203L26.3568 15.3403C26.5419 15.1552 26.7618 15.0083 27.0037 14.9081C27.2456 14.8079 27.5049 14.7563 27.7668 14.7563C28.0286 14.7563 28.2879 14.8079 28.5299 14.9081C28.7718 15.0083 28.9916 15.1552 29.1768 15.3403C29.3619 15.5255 29.5088 15.7453 29.609 15.9873C29.7092 16.2292 29.7608 16.4885 29.7608 16.7503C29.7608 17.0122 29.7092 17.2715 29.609 17.5134C29.5088 17.7554 29.3619 17.9752 29.1768 18.1603L20.6968 26.6403C19.9368 27.4403 18.6568 27.4403 17.8768 26.6603Z" fill="#3B82F6"/>
</svg>
