<svg width="40" height="40" viewBox="0 0 40 40" fill="none" xmlns="http://www.w3.org/2000/svg">
<path fill-rule="evenodd" clip-rule="evenodd" d="M11.6076 0.1185C13.7137 0.0215454 14.3852 0 19.75 0C25.1148 0 25.7863 0.0233409 27.8906 0.1185C29.9949 0.213659 31.4312 0.549409 32.688 1.03598C34.0041 1.53332 35.1981 2.31075 36.1856 3.3162C37.191 4.30191 37.9667 5.49409 38.4622 6.81195C38.9506 8.06877 39.2845 9.50514 39.3815 11.6058C39.4785 13.7155 39.5 14.387 39.5 19.75C39.5 25.1148 39.4767 25.7863 39.3815 27.8924C39.2863 29.9931 38.9506 31.4294 38.4622 32.6862C37.9667 34.0043 37.1898 35.1984 36.1856 36.1856C35.1981 37.191 34.0041 37.9667 32.688 38.4622C31.4312 38.9506 29.9949 39.2845 27.8942 39.3815C25.7863 39.4785 25.1148 39.5 19.75 39.5C14.3852 39.5 13.7137 39.4767 11.6076 39.3815C9.50693 39.2863 8.07057 38.9506 6.81375 38.4622C5.49574 37.9666 4.30159 37.1897 3.31441 36.1856C2.30964 35.1993 1.53209 34.0057 1.03598 32.688C0.549409 31.4312 0.215455 29.9949 0.1185 27.8942C0.0215454 25.7845 0 25.113 0 19.75C0 14.3852 0.0233409 13.7137 0.1185 11.6094C0.213659 9.50514 0.549409 8.06877 1.03598 6.81195C1.53282 5.49424 2.31096 4.30068 3.3162 3.31441C4.30198 2.30985 5.49494 1.53232 6.81195 1.03598C8.06877 0.549409 9.50514 0.215455 11.6058 0.1185H11.6076ZM27.7308 3.6735C25.6481 3.57834 25.0232 3.55859 19.75 3.55859C14.4767 3.55859 13.8519 3.57834 11.7692 3.6735C9.84268 3.76148 8.79773 4.08286 8.10109 4.35398C7.18002 4.71307 6.52109 5.13859 5.82984 5.82984C5.17458 6.46732 4.6703 7.24337 4.35398 8.10109C4.08286 8.79773 3.76148 9.84268 3.6735 11.7692C3.57834 13.8519 3.55859 14.4767 3.55859 19.75C3.55859 25.0232 3.57834 25.6481 3.6735 27.7308C3.76148 29.6573 4.08286 30.7023 4.35398 31.3989C4.66998 32.2553 5.1745 33.0328 5.82984 33.6702C6.46723 34.3255 7.24466 34.83 8.10109 35.146C8.79773 35.4171 9.84268 35.7385 11.7692 35.8265C13.8519 35.9217 14.475 35.9414 19.75 35.9414C25.025 35.9414 25.6481 35.9217 27.7308 35.8265C29.6573 35.7385 30.7023 35.4171 31.3989 35.146C32.32 34.7869 32.9789 34.3614 33.6702 33.6702C34.3255 33.0328 34.83 32.2553 35.146 31.3989C35.4171 30.7023 35.7385 29.6573 35.8265 27.7308C35.9217 25.6481 35.9414 25.0232 35.9414 19.75C35.9414 14.4767 35.9217 13.8519 35.8265 11.7692C35.7385 9.84268 35.4171 8.79773 35.146 8.10109C34.7869 7.18002 34.3614 6.52109 33.6702 5.82984C33.0326 5.17463 32.2566 4.67036 31.3989 4.35398C30.7023 4.08286 29.6573 3.76148 27.7308 3.6735ZM17.2274 25.8384C18.6362 26.4248 20.2049 26.504 21.6656 26.0623C23.1263 25.6206 24.3884 24.6856 25.2362 23.4168C26.0841 22.148 26.4651 20.6242 26.3143 19.1056C26.1634 17.5871 25.4901 16.168 24.4092 15.0908C23.7202 14.4022 22.887 13.8749 21.9698 13.547C21.0525 13.219 20.074 13.0985 19.1045 13.1941C18.1351 13.2897 17.1989 13.5991 16.3634 14.0999C15.5279 14.6008 14.8138 15.2807 14.2726 16.0906C13.7314 16.9005 13.3765 17.8204 13.2334 18.784C13.0904 19.7475 13.1627 20.7308 13.4453 21.6631C13.7279 22.5953 14.2137 23.4533 14.8677 24.1753C15.5216 24.8973 16.3275 25.4653 17.2274 25.8384ZM12.5718 12.5718C13.5144 11.6291 14.6335 10.8814 15.8652 10.3712C17.0968 9.86103 18.4169 9.59845 19.75 9.59845C21.0831 9.59845 22.4032 9.86103 23.6348 10.3712C24.8665 10.8814 25.9856 11.6291 26.9282 12.5718C27.8709 13.5144 28.6186 14.6335 29.1288 15.8652C29.639 17.0968 29.9015 18.4169 29.9015 19.75C29.9015 21.0831 29.639 22.4032 29.1288 23.6348C28.6186 24.8665 27.8709 25.9856 26.9282 26.9282C25.0244 28.832 22.4424 29.9015 19.75 29.9015C17.0576 29.9015 14.4756 28.832 12.5718 26.9282C10.668 25.0244 9.59845 22.4424 9.59845 19.75C9.59845 17.0576 10.668 14.4756 12.5718 12.5718ZM32.153 11.1103C32.3866 10.8899 32.5736 10.6249 32.703 10.331C32.8323 10.0371 32.9014 9.72018 32.906 9.39908C32.9107 9.07798 32.8509 8.75921 32.7302 8.46164C32.6095 8.16406 32.4303 7.89373 32.2032 7.66666C31.9761 7.43959 31.7058 7.26038 31.4082 7.13966C31.1107 7.01893 30.7919 6.95914 30.4708 6.96382C30.1497 6.9685 29.8328 7.03756 29.5389 7.16691C29.2449 7.29626 28.9799 7.48327 28.7596 7.71686C28.331 8.17117 28.0964 8.7746 28.1055 9.39908C28.1146 10.0236 28.3667 10.6199 28.8083 11.0615C29.25 11.5031 29.8463 11.7553 30.4708 11.7644C31.0953 11.7735 31.6987 11.5388 32.153 11.1103Z" fill="white"/>
</svg>
