<svg width="85" height="84" viewBox="0 0 85 84" fill="none" xmlns="http://www.w3.org/2000/svg">
<g clip-path="url(#clip0)">
<rect x="0.333252" width="84" height="84" rx="42" fill="url(#paint0_linear)"/>
<g clip-path="url(#clip1)">
<path d="M60.8949 60.5616C57.2238 64.2327 52.5464 66.7328 47.4544 67.7456C42.3624 68.7585 37.0844 68.2386 32.2879 66.2518C27.4913 64.265 23.3916 60.9005 20.5073 56.5837C17.6229 52.2669 16.0833 47.1918 16.0833 42C16.0833 36.8082 17.6229 31.7331 20.5073 27.4163C23.3916 23.0995 27.4913 19.735 32.2879 17.7482C37.0844 15.7614 42.3624 15.2415 47.4544 16.2544C52.5464 17.2672 57.2238 19.7673 60.8949 23.4384C65.8177 28.3613 68.5833 35.0381 68.5833 42C68.5833 48.9619 65.8177 55.6387 60.8949 60.5616ZM26.4234 26.0901C23.2767 29.2368 21.1338 33.2459 20.2657 37.6105C19.3975 41.975 19.8431 46.499 21.546 50.6104C23.249 54.7217 26.1329 58.2357 29.833 60.7081C33.5331 63.1804 37.8832 64.5 42.3333 64.5C46.7834 64.5 51.1335 63.1804 54.8337 60.7081C58.5338 58.2357 61.4176 54.7217 63.1206 50.6104C64.8236 46.499 65.2692 41.975 64.401 37.6105C63.5328 33.2459 61.3899 29.2368 58.2432 26.0901C54.0237 21.8705 48.3007 19.5 42.3333 19.5C36.366 19.5 30.643 21.8705 26.4234 26.0901Z" fill="white"/>
<path d="M44.2027 30.6112L48.9624 35.3709L51.6141 32.7192L42.3333 23.4384L33.0525 32.7192L35.7042 35.3709L40.4639 30.6112V53.3888L35.7042 48.6291L33.0525 51.2808L42.3333 60.5616L51.6141 51.2808L48.9624 48.6291L44.2027 53.3888V30.6112Z" fill="white"/>
</g>
</g>
<defs>
<linearGradient id="paint0_linear" x1="18.5" y1="6" x2="42.3333" y2="84" gradientUnits="userSpaceOnUse">
<stop stop-color="#C084FC"/>
<stop offset="1" stop-color="#7E22CE"/>
</linearGradient>
<clipPath id="clip0">
<rect x="0.333252" width="84" height="84" rx="42" fill="white"/>
</clipPath>
<clipPath id="clip1">
<rect width="60" height="60" fill="white" transform="translate(-0.0931396 42) rotate(-45)"/>
</clipPath>
</defs>
</svg>
