<svg width="84" height="84" viewBox="0 0 84 84" fill="none" xmlns="http://www.w3.org/2000/svg">
<rect width="84" height="84" rx="42" fill="url(#paint0_linear)"/>
<g clip-path="url(#clip0)">
<g filter="url(#filter0_dd)">
<path d="M67.2476 40.933L62.8301 35.8742L63.4476 29.1767C63.5663 27.9892 62.7588 26.8967 61.6188 26.6355L55.0638 25.163L51.6438 19.368C51.0263 18.3467 49.7676 17.9192 48.6513 18.3942L42.5001 21.0305L36.3488 18.3942C35.2563 17.9192 33.9738 18.3467 33.3801 19.368L29.9363 25.1392L23.4051 26.6117C22.2413 26.873 21.4338 27.9417 21.5526 29.1292L22.1701 35.8505L17.7288 40.933C16.9451 41.8355 16.9451 43.1655 17.7288 44.068L22.1701 49.1267L21.5526 55.848C21.4338 57.0355 22.2413 58.128 23.3813 58.3892L29.9363 59.8855L33.3563 65.6567C33.9738 66.678 35.2563 67.1055 36.3488 66.6305L42.5001 63.9467L48.6513 66.583C49.7438 67.058 51.0263 66.6305 51.6201 65.6092L55.0401 59.838L61.5951 58.3417C62.7588 58.0805 63.5426 56.988 63.4238 55.8005L62.8063 49.103L67.2238 44.0442C67.611 43.6199 67.8276 43.0675 67.8319 42.4932C67.8363 41.9188 67.6282 41.3631 67.2476 40.933ZM38.2963 49.2217L33.2613 44.1867C33.0414 43.9668 32.867 43.7058 32.748 43.4185C32.629 43.1312 32.5678 42.8233 32.5678 42.5124C32.5678 42.2014 32.629 41.8935 32.748 41.6062C32.867 41.3189 33.0414 41.0579 33.2613 40.838C33.4812 40.6181 33.7422 40.4437 34.0295 40.3247C34.3168 40.2057 34.6247 40.1444 34.9357 40.1444C35.2466 40.1444 35.5546 40.2057 35.8418 40.3247C36.1291 40.4437 36.3902 40.6181 36.6101 40.838L39.9588 44.1867L48.3663 35.7792C48.5862 35.5593 48.8472 35.3849 49.1345 35.2659C49.4218 35.1469 49.7297 35.0857 50.0407 35.0857C50.3516 35.0857 50.6596 35.1469 50.9468 35.2659C51.2341 35.3849 51.4952 35.5593 51.7151 35.7792C51.9349 35.9991 52.1094 36.2601 52.2284 36.5474C52.3474 36.8347 52.4086 37.1426 52.4086 37.4536C52.4086 37.7646 52.3474 38.0725 52.2284 38.3598C52.1094 38.6471 51.9349 38.9081 51.7151 39.128L41.6451 49.198C40.7426 50.148 39.2226 50.148 38.2963 49.2217Z" fill="#F9FAFB"/>
</g>
</g>
<defs>
<filter id="filter0_dd" x="12.141" y="17.2007" width="60.691" height="58.6233" filterUnits="userSpaceOnUse" color-interpolation-filters="sRGB">
<feFlood flood-opacity="0" result="BackgroundImageFix"/>
<feColorMatrix in="SourceAlpha" type="matrix" values="0 0 0 0 0 0 0 0 0 0 0 0 0 0 0 0 0 0 127 0"/>
<feMorphology radius="1" operator="erode" in="SourceAlpha" result="effect1_dropShadow"/>
<feOffset dy="4"/>
<feGaussianBlur stdDeviation="3"/>
<feColorMatrix type="matrix" values="0 0 0 0 0 0 0 0 0 0 0 0 0 0 0 0 0 0 0.1 0"/>
<feBlend mode="normal" in2="BackgroundImageFix" result="effect1_dropShadow"/>
<feColorMatrix in="SourceAlpha" type="matrix" values="0 0 0 0 0 0 0 0 0 0 0 0 0 0 0 0 0 0 127 0"/>
<feMorphology radius="1" operator="erode" in="SourceAlpha" result="effect2_dropShadow"/>
<feOffset dy="2"/>
<feGaussianBlur stdDeviation="2"/>
<feColorMatrix type="matrix" values="0 0 0 0 0 0 0 0 0 0 0 0 0 0 0 0 0 0 0.06 0"/>
<feBlend mode="normal" in2="effect1_dropShadow" result="effect2_dropShadow"/>
<feBlend mode="normal" in="SourceGraphic" in2="effect2_dropShadow" result="shape"/>
</filter>
<linearGradient id="paint0_linear" x1="42" y1="0" x2="42" y2="84" gradientUnits="userSpaceOnUse">
<stop stop-color="#3B82F6"/>
<stop offset="1" stop-color="#1D4ED8"/>
</linearGradient>
<clipPath id="clip0">
<rect width="57" height="57" fill="white" transform="translate(14 14)"/>
</clipPath>
</defs>
</svg>
