<svg width="40" height="41" viewBox="0 0 40 41" fill="none" xmlns="http://www.w3.org/2000/svg">
<rect y="0.5" width="40" height="40" rx="20" fill="#E5E7EB"/>
<path d="M31.2884 19.7849L29.2734 17.4774L29.555 14.4224C29.6092 13.8807 29.2409 13.3824 28.7209 13.2632L25.7309 12.5916L24.1709 9.94822C23.8892 9.48239 23.315 9.28739 22.8059 9.50406L20 10.7066L17.1942 9.50406C16.6959 9.28739 16.1109 9.48239 15.84 9.94822L14.2692 12.5807L11.29 13.2524C10.7592 13.3716 10.3909 13.8591 10.445 14.4007L10.7267 17.4666L8.70086 19.7849C8.34336 20.1966 8.34336 20.8032 8.70086 21.2149L10.7267 23.5224L10.445 26.5882C10.3909 27.1299 10.7592 27.6282 11.2792 27.7474L14.2692 28.4299L15.8292 31.0624C16.1109 31.5282 16.6959 31.7232 17.1942 31.5066L20 30.2824L22.8059 31.4849C23.3042 31.7016 23.8892 31.5066 24.16 31.0407L25.72 28.4082L28.71 27.7257C29.2409 27.6066 29.5984 27.1082 29.5442 26.5666L29.2625 23.5116L31.2775 21.2041C31.4541 21.0105 31.5529 20.7585 31.5549 20.4965C31.5569 20.2346 31.462 19.9811 31.2884 19.7849ZM18.0825 23.5657L15.7859 21.2691C15.6856 21.1688 15.606 21.0497 15.5517 20.9186C15.4974 20.7876 15.4695 20.6471 15.4695 20.5053C15.4695 20.3635 15.4974 20.223 15.5517 20.092C15.606 19.9609 15.6856 19.8419 15.7859 19.7416C15.8862 19.6413 16.0052 19.5617 16.1363 19.5074C16.2673 19.4531 16.4078 19.4252 16.5496 19.4252C16.6915 19.4252 16.8319 19.4531 16.963 19.5074C17.094 19.5617 17.2131 19.6413 17.3134 19.7416L18.8409 21.2691L22.6759 17.4341C22.7762 17.3338 22.8952 17.2542 23.0263 17.1999C23.1573 17.1456 23.2978 17.1177 23.4396 17.1177C23.5815 17.1177 23.7219 17.1456 23.853 17.1999C23.984 17.2542 24.1031 17.3338 24.2034 17.4341C24.3037 17.5344 24.3832 17.6534 24.4375 17.7845C24.4918 17.9155 24.5197 18.056 24.5197 18.1978C24.5197 18.3396 24.4918 18.4801 24.4375 18.6111C24.3832 18.7422 24.3037 18.8613 24.2034 18.9616L19.61 23.5549C19.1984 23.9882 18.505 23.9882 18.0825 23.5657Z" fill="#6B7280"/>
</svg>
