<svg width="114" height="114" viewBox="0 0 114 114" fill="none" xmlns="http://www.w3.org/2000/svg">
<path d="M42.75 1.97885C43.4455 2.82396 43.8716 3.85822 43.9732 4.948C44.0748 6.03777 43.8473 7.13297 43.32 8.0921C39.2007 15.6551 37.0495 24.1326 37.0642 32.7446C37.0642 61.3942 60.42 84.5932 89.205 84.5932C92.9599 84.5932 96.615 84.2013 100.128 83.4532C101.204 83.22 102.326 83.3092 103.352 83.7097C104.379 84.1101 105.264 84.804 105.899 85.7047C106.569 86.6413 106.91 87.7729 106.87 88.9236C106.83 90.0743 106.411 91.1795 105.678 92.0673C100.09 98.9318 93.04 104.463 85.0428 108.257C77.0456 112.051 68.3025 114.012 59.451 113.998C26.6047 113.998 0 87.5359 0 54.9319C0 30.3933 15.0622 9.3461 36.5085 0.425599C37.5768 -0.0258996 38.7628 -0.118568 39.8882 0.161515C41.0137 0.441598 42.0179 1.07931 42.75 1.97885ZM34.6132 9.33897C26.3668 13.7624 19.4729 20.3374 14.6642 28.3653C9.85548 36.3932 7.31168 45.5739 7.30312 54.9319C7.30312 83.5743 30.666 106.773 59.451 106.773C66.344 106.785 73.171 105.43 79.5367 102.786C85.9025 100.142 91.6806 96.2613 96.5366 91.3691C94.1355 91.6684 91.6916 91.818 89.205 91.818C56.3587 91.818 29.7611 65.3557 29.7611 32.7517C29.7611 24.4368 31.4854 16.521 34.6132 9.33897Z" fill="white"/>
<path d="M76.9059 22.4286C77.0081 22.12 77.2049 21.8515 77.4684 21.6612C77.7319 21.4709 78.0486 21.3685 78.3737 21.3685C78.6987 21.3685 79.0154 21.4709 79.2789 21.6612C79.5424 21.8515 79.7392 22.12 79.8414 22.4286L82.5988 30.7078C83.8314 34.3986 86.7241 37.2914 90.4149 38.524L98.6942 41.2814C99.0027 41.3835 99.2712 41.5803 99.4615 41.8438C99.6518 42.1073 99.7543 42.4241 99.7543 42.7491C99.7543 43.0741 99.6518 43.3909 99.4615 43.6544C99.2712 43.9179 99.0027 44.1147 98.6942 44.2169L90.4149 46.9742C88.5946 47.5807 86.9406 48.6027 85.584 49.9594C84.2273 51.3161 83.2052 52.9701 82.5988 54.7904L79.8414 63.0696C79.7392 63.3782 79.5424 63.6467 79.2789 63.837C79.0154 64.0273 78.6987 64.1297 78.3737 64.1297C78.0486 64.1297 77.7319 64.0273 77.4684 63.837C77.2049 63.6467 77.0081 63.3782 76.9059 63.0696L74.1485 54.7904C73.5421 52.9701 72.52 51.3161 71.1633 49.9594C69.8067 48.6027 68.1527 47.5807 66.3324 46.9742L58.0531 44.2169C57.7446 44.1147 57.4761 43.9179 57.2858 43.6544C57.0955 43.3909 56.993 43.0741 56.993 42.7491C56.993 42.4241 57.0955 42.1073 57.2858 41.8438C57.4761 41.5803 57.7446 41.3835 58.0531 41.2814L66.3324 38.524C68.1527 37.9175 69.8067 36.8955 71.1633 35.5388C72.52 34.1821 73.5421 32.5281 74.1485 30.7078L76.9059 22.4286ZM98.7725 0.704472C98.8429 0.501597 98.9747 0.325678 99.1496 0.201173C99.3245 0.0766687 99.5339 0.00976562 99.7486 0.00976562C99.9634 0.00976563 100.173 0.0766687 100.348 0.201173C100.523 0.325678 100.654 0.501597 100.725 0.704472L102.563 6.21922C103.382 8.68447 105.313 10.6153 107.779 11.4347L113.293 13.273C113.496 13.3433 113.672 13.4751 113.797 13.65C113.921 13.825 113.988 14.0344 113.988 14.2491C113.988 14.4638 113.921 14.6732 113.797 14.8481C113.672 15.0231 113.496 15.1549 113.293 15.2252L107.779 17.0635C106.564 17.4676 105.46 18.1494 104.554 19.0548C103.649 19.9601 102.967 21.0641 102.563 22.279L100.725 27.7937C100.654 27.9966 100.523 28.1725 100.348 28.297C100.173 28.4215 99.9634 28.4884 99.7486 28.4884C99.5339 28.4884 99.3245 28.4215 99.1496 28.297C98.9747 28.1725 98.8429 27.9966 98.7725 27.7937L96.9343 22.279C96.5301 21.0641 95.8483 19.9601 94.943 19.0548C94.0376 18.1494 92.9337 17.4676 91.7188 17.0635L86.204 15.2252C86.0012 15.1549 85.8252 15.0231 85.7007 14.8481C85.5762 14.6732 85.5093 14.4638 85.5093 14.2491C85.5093 14.0344 85.5762 13.825 85.7007 13.65C85.8252 13.4751 86.0012 13.3433 86.204 13.273L91.7188 11.4347C94.184 10.6153 96.1149 8.68447 96.9343 6.21922L98.7725 0.711597V0.704472Z" fill="white"/>
</svg>
