<svg width="41" height="41" viewBox="0 0 41 41" fill="none" xmlns="http://www.w3.org/2000/svg">
<rect x="0.666626" y="0.5" width="40" height="40" rx="20" fill="#99A4BD"/>
<g clip-path="url(#clip0)">
<path d="M10.9167 22.1247L10.1042 20.4997H15.7917L15.1417 18.8747H9.83333L9.02083 17.2497H17.4708L16.8208 15.6247H8.86917L7.9375 13.9997H12C12 13.425 12.2283 12.8739 12.6346 12.4676C13.0409 12.0613 13.592 11.833 14.1667 11.833H27.1667V16.1663H30.4167L33.6667 20.4997V25.9163H31.5C31.5 26.7783 31.1576 27.6049 30.5481 28.2144C29.9386 28.8239 29.112 29.1663 28.25 29.1663C27.388 29.1663 26.5614 28.8239 25.9519 28.2144C25.3424 27.6049 25 26.7783 25 25.9163H20.6667C20.6667 26.7783 20.3243 27.6049 19.7148 28.2144C19.1053 28.8239 18.2786 29.1663 17.4167 29.1663C16.5547 29.1663 15.7281 28.8239 15.1186 28.2144C14.5091 27.6049 14.1667 26.7783 14.1667 25.9163H12V22.1247H10.9167ZM28.25 27.5413C28.681 27.5413 29.0943 27.3701 29.399 27.0654C29.7038 26.7606 29.875 26.3473 29.875 25.9163C29.875 25.4854 29.7038 25.072 29.399 24.7673C29.0943 24.4625 28.681 24.2913 28.25 24.2913C27.819 24.2913 27.4057 24.4625 27.101 24.7673C26.7962 25.072 26.625 25.4854 26.625 25.9163C26.625 26.3473 26.7962 26.7606 27.101 27.0654C27.4057 27.3701 27.819 27.5413 28.25 27.5413ZM29.875 17.7913H27.1667V20.4997H31.9983L29.875 17.7913ZM17.4167 27.5413C17.8476 27.5413 18.261 27.3701 18.5657 27.0654C18.8705 26.7606 19.0417 26.3473 19.0417 25.9163C19.0417 25.4854 18.8705 25.072 18.5657 24.7673C18.261 24.4625 17.8476 24.2913 17.4167 24.2913C16.9857 24.2913 16.5724 24.4625 16.2676 24.7673C15.9629 25.072 15.7917 25.4854 15.7917 25.9163C15.7917 26.3473 15.9629 26.7606 16.2676 27.0654C16.5724 27.3701 16.9857 27.5413 17.4167 27.5413Z" fill="#001137"/>
</g>
<defs>
<clipPath id="clip0">
<rect width="26" height="26" fill="white" transform="translate(7.66663 7.5)"/>
</clipPath>
</defs>
</svg>
