<svg width="40" height="41" viewBox="0 0 40 41" fill="none" xmlns="http://www.w3.org/2000/svg">
<rect y="0.5" width="40" height="40" rx="20" fill="#E5E7EB"/>
<path d="M10.25 22.1249L9.43748 20.4999H15.125L14.475 18.8749H9.16665L8.35415 17.2499H16.8041L16.1541 15.6249H8.20248L7.27081 13.9999H11.3333C11.3333 13.4253 11.5616 12.8742 11.9679 12.4679C12.3742 12.0615 12.9253 11.8333 13.5 11.8333H26.5V16.1666H29.75L33 20.4999V25.9166H30.8333C30.8333 26.7785 30.4909 27.6052 29.8814 28.2147C29.2719 28.8242 28.4453 29.1666 27.5833 29.1666C26.7214 29.1666 25.8947 28.8242 25.2852 28.2147C24.6757 27.6052 24.3333 26.7785 24.3333 25.9166H20C20 26.7785 19.6576 27.6052 19.0481 28.2147C18.4386 28.8242 17.6119 29.1666 16.75 29.1666C15.888 29.1666 15.0614 28.8242 14.4519 28.2147C13.8424 27.6052 13.5 26.7785 13.5 25.9166H11.3333V22.1249H10.25ZM27.5833 27.5416C28.0143 27.5416 28.4276 27.3704 28.7324 27.0656C29.0371 26.7609 29.2083 26.3476 29.2083 25.9166C29.2083 25.4856 29.0371 25.0723 28.7324 24.7675C28.4276 24.4628 28.0143 24.2916 27.5833 24.2916C27.1523 24.2916 26.739 24.4628 26.4343 24.7675C26.1295 25.0723 25.9583 25.4856 25.9583 25.9166C25.9583 26.3476 26.1295 26.7609 26.4343 27.0656C26.739 27.3704 27.1523 27.5416 27.5833 27.5416ZM29.2083 17.7916H26.5V20.4999H31.3316L29.2083 17.7916ZM16.75 27.5416C17.181 27.5416 17.5943 27.3704 17.899 27.0656C18.2038 26.7609 18.375 26.3476 18.375 25.9166C18.375 25.4856 18.2038 25.0723 17.899 24.7675C17.5943 24.4628 17.181 24.2916 16.75 24.2916C16.319 24.2916 15.9057 24.4628 15.6009 24.7675C15.2962 25.0723 15.125 25.4856 15.125 25.9166C15.125 26.3476 15.2962 26.7609 15.6009 27.0656C15.9057 27.3704 16.319 27.5416 16.75 27.5416Z" fill="#6B7280"/>
</svg>
