<svg width="60" height="60" viewBox="0 0 60 60" fill="none" xmlns="http://www.w3.org/2000/svg">
<rect width="60" height="60" rx="30" fill="#FECACA"/>
<path d="M14 30C14 25.7565 15.6857 21.6869 18.6863 18.6863C21.6869 15.6857 25.7565 14 30 14C34.2435 14 38.3131 15.6857 41.3137 18.6863C44.3143 21.6869 46 25.7565 46 30C46 34.2435 44.3143 38.3131 41.3137 41.3137C38.3131 44.3143 34.2435 46 30 46C25.7565 46 21.6869 44.3143 18.6863 41.3137C15.6857 38.3131 14 34.2435 14 30ZM27 27C27.2193 27.0014 27.433 26.9307 27.6082 26.7987C27.7834 26.6667 27.9103 26.4807 27.9694 26.2695C28.0285 26.0583 28.0165 25.8335 27.9353 25.6298C27.8541 25.426 27.7082 25.2547 27.52 25.142L22.514 22.142C22.2864 22.0057 22.0141 21.9653 21.7568 22.0298C21.4995 22.0944 21.2783 22.2584 21.142 22.486C21.0057 22.7136 20.9653 22.9859 21.0298 23.2432C21.0944 23.5005 21.2584 23.7217 21.486 23.858L23.92 25.318C23.6278 25.5055 23.3894 25.7658 23.2284 26.0733C23.0673 26.3808 22.989 26.725 23.0012 27.0719C23.0135 27.4188 23.1158 27.7566 23.2982 28.052C23.4806 28.3474 23.7367 28.5903 24.0414 28.7566C24.3461 28.923 24.6889 29.0072 25.036 29.001C25.3831 28.9948 25.7226 28.8983 26.0211 28.721C26.3196 28.5438 26.5668 28.2919 26.7385 27.9902C26.9101 27.6884 27.0002 27.3472 27 27ZM37 27C37 26.6652 36.9159 26.3358 36.7556 26.0419C36.5952 25.748 36.3636 25.4991 36.082 25.318L38.514 23.858C38.7416 23.7217 38.9056 23.5005 38.9701 23.2432C39.0347 22.9859 38.9943 22.7136 38.858 22.486C38.7217 22.2584 38.5005 22.0944 38.2432 22.0298C37.9859 21.9653 37.7136 22.0057 37.486 22.142L32.488 25.142C32.3004 25.2543 32.1548 25.425 32.0734 25.6279C31.9921 25.8309 31.9795 26.0549 32.0376 26.2657C32.0957 26.4764 32.2212 26.6624 32.395 26.795C32.5689 26.9276 32.7814 26.9996 33 27C33 27.5304 33.2107 28.0391 33.5858 28.4142C33.9609 28.7893 34.4696 29 35 29C35.5304 29 36.0391 28.7893 36.4142 28.4142C36.7893 28.0391 37 27.5304 37 27ZM37.124 36.78C37.804 36.164 37.258 35.348 37.234 35.32C37.0944 35.162 36.9461 35.0118 36.79 34.87C36.3761 34.4981 35.925 34.1697 35.444 33.89C34.244 33.182 32.448 32.5 30.004 32.5C27.56 32.5 25.762 33.18 24.56 33.888C23.96 34.24 23.516 34.594 23.212 34.868C23.0552 35.0097 22.9063 35.1599 22.766 35.318C22.4 35.756 22.41 36.408 22.874 36.778C23.0795 36.9431 23.3419 37.0204 23.604 36.993C23.8662 36.9657 24.107 36.8359 24.274 36.632L24.28 36.626C24.3673 36.5294 24.4594 36.4373 24.556 36.35C24.77 36.156 25.106 35.886 25.572 35.612C26.498 35.068 27.952 34.5 30.004 34.5C32.056 34.5 33.508 35.068 34.43 35.612C34.896 35.886 35.23 36.156 35.444 36.35C35.5398 36.4367 35.6313 36.5282 35.718 36.624L35.724 36.63C36.07 37.056 36.718 37.15 37.124 36.78Z" fill="#B91C1C"/>
</svg>
