<svg width="41" height="41" viewBox="0 0 41 41" fill="none" xmlns="http://www.w3.org/2000/svg">
<rect x="0.5" y="0.5" width="40" height="40" rx="20" fill="#C3DFF0"/>
<path d="M31.7884 19.7851L29.7734 17.4776L30.055 14.4226C30.1092 13.881 29.7409 13.3826 29.2209 13.2635L26.2309 12.5918L24.6709 9.94847C24.3892 9.48263 23.815 9.28763 23.3059 9.5043L20.5 10.7068L17.6942 9.5043C17.1959 9.28763 16.6109 9.48263 16.34 9.94847L14.7692 12.581L11.79 13.2526C11.2592 13.3718 10.8909 13.8593 10.945 14.401L11.2267 17.4668L9.20086 19.7851C8.84336 20.1968 8.84336 20.8035 9.20086 21.2151L11.2267 23.5226L10.945 26.5885C10.8909 27.1301 11.2592 27.6285 11.7792 27.7476L14.7692 28.4301L16.3292 31.0626C16.6109 31.5285 17.1959 31.7235 17.6942 31.5068L20.5 30.2826L23.3059 31.4851C23.8042 31.7018 24.3892 31.5068 24.66 31.041L26.22 28.4085L29.21 27.726C29.7409 27.6068 30.0984 27.1085 30.0442 26.5668L29.7625 23.5118L31.7775 21.2043C31.9541 21.0108 32.0529 20.7588 32.0549 20.4968C32.0569 20.2348 31.962 19.9813 31.7884 19.7851ZM18.5825 23.566L16.2859 21.2693C16.1856 21.169 16.106 21.0499 16.0517 20.9189C15.9974 20.7878 15.9695 20.6474 15.9695 20.5055C15.9695 20.3637 15.9974 20.2233 16.0517 20.0922C16.106 19.9612 16.1856 19.8421 16.2859 19.7418C16.3862 19.6415 16.5052 19.5619 16.6363 19.5077C16.7673 19.4534 16.9078 19.4254 17.0496 19.4254C17.1915 19.4254 17.3319 19.4534 17.463 19.5077C17.594 19.5619 17.7131 19.6415 17.8134 19.7418L19.3409 21.2693L23.1759 17.4343C23.2762 17.334 23.3952 17.2544 23.5263 17.2002C23.6573 17.1459 23.7978 17.1179 23.9396 17.1179C24.0815 17.1179 24.2219 17.1459 24.353 17.2002C24.484 17.2544 24.6031 17.334 24.7034 17.4343C24.8037 17.5346 24.8832 17.6537 24.9375 17.7847C24.9918 17.9158 25.0197 18.0562 25.0197 18.198C25.0197 18.3399 24.9918 18.4803 24.9375 18.6114C24.8832 18.7424 24.8037 18.8615 24.7034 18.9618L20.11 23.5551C19.6984 23.9885 19.005 23.9885 18.5825 23.566Z" fill="#3B82F6"/>
</svg>
