<svg width="25" height="26" viewBox="0 0 25 26" fill="none" xmlns="http://www.w3.org/2000/svg">
<path d="M24.9321 9.61575C24.8567 9.39359 24.7179 9.19839 24.5328 9.05423C24.3477 8.91008 24.1244 8.82329 23.8905 8.80457L17.0495 8.26098L14.0892 1.70792C13.9949 1.49686 13.8415 1.3176 13.6476 1.19177C13.4537 1.06593 13.2275 0.998906 12.9964 0.998779C12.7652 0.998653 12.539 1.06543 12.3449 1.19105C12.1509 1.31667 11.9973 1.49577 11.9028 1.70672L8.94247 8.26098L2.10142 8.80457C1.87157 8.82278 1.65184 8.90682 1.4685 9.04664C1.28517 9.18646 1.146 9.37614 1.06764 9.59299C0.98928 9.80983 0.975053 10.0447 1.02666 10.2694C1.07827 10.4941 1.19352 10.6992 1.35864 10.8601L6.41413 15.7884L4.62617 23.5306C4.57188 23.765 4.58928 24.0103 4.67611 24.2346C4.76294 24.4589 4.9152 24.652 5.11312 24.7887C5.31104 24.9255 5.54549 24.9996 5.78604 25.0014C6.0266 25.0032 6.26215 24.9327 6.46213 24.799L12.996 20.4431L19.5298 24.799C19.7342 24.9347 19.9753 25.0046 20.2206 24.9992C20.4659 24.9938 20.7036 24.9135 20.9019 24.7689C21.1001 24.6244 21.2494 24.4226 21.3295 24.1907C21.4097 23.9588 21.4169 23.708 21.3502 23.4718L19.1554 15.792L24.5985 10.8937C24.9549 10.5721 25.0857 10.0705 24.9321 9.61575Z" fill="#F2994A"/>
<path d="M24.5327 9.05424C24.7178 9.1984 24.8566 9.3936 24.9321 9.61576C25.0857 10.0705 24.9549 10.5721 24.5985 10.8937L19.1554 15.792L17.0494 8.26099L23.8905 8.80457C24.1244 8.82329 24.3476 8.91009 24.5327 9.05424Z" fill="#9CA3AF"/>
</svg>
