<svg width="24" height="26" viewBox="0 0 24 26" fill="none" xmlns="http://www.w3.org/2000/svg">
<path d="M23.9359 9.61575C23.8605 9.39359 23.7216 9.19839 23.5365 9.05423C23.3514 8.91008 23.1282 8.82329 22.8943 8.80457L16.0533 8.26098L13.0929 1.70792C12.9987 1.49686 12.8453 1.3176 12.6514 1.19177C12.4575 1.06593 12.2313 0.998906 12.0002 0.998779C11.769 0.998653 11.5427 1.06543 11.3487 1.19105C11.1546 1.31667 11.0011 1.49577 10.9066 1.70672L7.94626 8.26098L1.10521 8.80457C0.875359 8.82278 0.655623 8.90682 0.472287 9.04664C0.288951 9.18646 0.14978 9.37614 0.0714217 9.59299C-0.0069363 9.80983 -0.0211627 10.0447 0.0304448 10.2694C0.0820522 10.4941 0.197308 10.6992 0.362424 10.8601L5.41791 15.7884L3.62995 23.5306C3.57566 23.765 3.59306 24.0103 3.67989 24.2346C3.76673 24.4589 3.91898 24.652 4.1169 24.7887C4.31482 24.9255 4.54927 24.9996 4.78983 25.0014C5.03038 25.0032 5.26593 24.9327 5.46591 24.799L11.9998 20.4431L18.5336 24.799C18.738 24.9347 18.9791 25.0046 19.2244 24.9992C19.4697 24.9938 19.7074 24.9135 19.9057 24.7689C20.1039 24.6244 20.2532 24.4226 20.3333 24.1907C20.4135 23.9588 20.4207 23.708 20.354 23.4718L18.1592 15.792L23.6023 10.8937C23.9587 10.5721 24.0895 10.0705 23.9359 9.61575Z" fill="#F2994A"/>
</svg>
